<?xml version="1.0" encoding="UTF-8"?>
<!-- Created with Inkscape (http://www.inkscape.org/) -->
<svg id="svg2" width="38.4" height="38.4" version="1.1" viewBox="0 0 38.4 38.4" xmlns="http://www.w3.org/2000/svg" xmlns:cc="http://creativecommons.org/ns#" xmlns:dc="http://purl.org/dc/elements/1.1/" xmlns:rdf="http://www.w3.org/1999/02/22-rdf-syntax-ns#">
 <metadata id="metadata8">
  <rdf:RDF>
   <cc:Work rdf:about="">
    <dc:format>image/svg+xml</dc:format>
    <dc:type rdf:resource="http://purl.org/dc/dcmitype/StillImage"/>
    <dc:title/>
   </cc:Work>
  </rdf:RDF>
 </metadata>
 <rect id="rect814" x="-2.6034" y="5.608" width="29.152" height="32.792" fill="#fff"/>
 <rect id="rect816" x="12.854" y="-2.278" width="23.105" height="34.983" fill="#fff"/>
 <rect id="rect818" x="27.824" y="-5.3695" width="19.525" height="10.414" fill="#fff"/>
 <path id="path817" d="m20.919 36.765c2.6005-2.8924 4.0293-6.8003 4.0293-11.021v-2.0642h-13.468l0.18804 4.64 6.2286 0.18304-0.62272 1.6389c-1.1906 3.1334-3.5888 4.7403-7.067 4.735-6.098-0.0093-9.6214-5.498-8.3214-12.963 0.62291-3.577 2.2741-5.9256 4.9512-7.0422 1.5054-0.62794 4.7106-0.72322 6.3255-0.18803 1.3325 0.44158 3.4348 2.5656 4.0744 4.1165 0.2359 0.572 0.59145 1.0369 0.79009 1.0331 0.87806-0.0168 5.9812-0.86645 6.1364-1.0217 0.30207-0.30207-1.0896-3.5396-2.2388-5.2082-2.4326-3.532-5.8854-5.2825-10.898-5.5252-3.8783-0.18774-6.5349 0.39099-9.118 1.9863l-1.76 1.087-0.09923-2.6157c-0.14873-3.9205 0.12455-5.1848 1.4341-6.6343 0.65206-0.72175 1.6213-1.3857 2.2967-1.5733 0.64267-0.17851 3.7965-0.32536 7.0085-0.32634l5.84-0.00178v5.12h9.92v26.24h6.08v-26.24h5.76v14.162c0 8.3239-0.12972 14.614-0.31466 15.259-0.41598 1.4504-2.0995 3.1478-3.5111 3.54-0.62381 0.1733-4.2795 0.31589-8.1238 0.31687l-6.9897 0.0019 1.47-1.635z" stroke-width=".32"/>
</svg>
