<?xml version="1.0" encoding="UTF-8"?>
<svg id="svg3" width="187.71mm" height="77.555mm" version="1.1" viewBox="0 0 2217 916" xmlns="http://www.w3.org/2000/svg" xmlns:cc="http://creativecommons.org/ns#" xmlns:dc="http://purl.org/dc/elements/1.1/" xmlns:rdf="http://www.w3.org/1999/02/22-rdf-syntax-ns#">
 <metadata id="metadata9">
  <rdf:RDF>
   <cc:Work rdf:about="">
    <dc:format>image/svg+xml</dc:format>
    <dc:type rdf:resource="http://purl.org/dc/dcmitype/StillImage"/>
   </cc:Work>
  </rdf:RDF>
 </metadata>
 <path id="Selection" d="m411 59.42-35 2.86c-22.03 2.65-43.81 7.16-65 13.74-82.72 25.72-153.29 81.79-197.8 155.98 0 0-16.89 31-16.89 31-16.12 35.1-27.36 72.55-31.47 111 0 0-1.88 20-1.88 20v10l-0.96 10 1 18s2.28 30 2.28 30c7.38 59.21 31.96 119.21 67.6 167l8.33 10.04 13.96 16.96c16.83 18.84 36.56 34.83 56.83 49.73 26.11 19.2 60.22 36.34 91 46.6 24.66 8.23 67.31 18.37 93 18.71h11l13 0.96 13-1c38.93-0.45 85.87-11.99 122-26.45l21-10.28 9-4.08 30-17.53 16-11.79 24-19.04 11-10.74 7.96-7.13c6.19-6.19 11.78-13.18 17.3-19.96l12.37-15c11.79-15.71 28.83-44.02 37.06-62l15.1-39 7.06-22c5.68-21.58 8.71-43.81 10.24-66l0.91-12v-27l-0.91-10c-2.24-32.55-7.18-59.16-18.08-90-13.02-36.87-27.89-67.42-51.39-99l-18.47-22-10.24-11.99-9.91-9.05-19-17.53c-36.98-30.86-82.74-54.67-129-67.85-24.3-6.93-48.84-10.94-74-12.67-10.56-0.72-21.42-2.77-32-1.49zm508 0.58v299h42v-128h129v128h42v-299h-42v128h-129v-128h-42zm768 1v298h42v-47c0.02-11.22 5.28-13.28 13-21 6.87-6.87 25.28-24.41 30-31l90 90 9 7.98 8 1.02h21v-22c0-2.09 0.12-5.06-0.6-7-1.47-4-11.88-13.48-15.4-17l-72-72c-2.03-2.03-7.96-7.15-7.96-10 0-2.42 3.36-5.37 4.96-7l55-55c5.94-5.94 17.55-16.78 22-23h-50l-8 1.02-9 7.98-63 63-27 26v-183h-42zm-341 239v59h42v-214h-99c-31.35 0-54.33-2.39-81 17.9-21.17 16.1-32.69 41.78-33 68.1v27c0 27.44 1.11 47.61 19.46 70 3.57 4.35 9.06 9.7 13.54 13.1 6.71 5.11 13.19 8.87 21 12.04 7.8 3.16 20.54 5.29 29 5.77 11.95 0.68 25.01-4.6 35-10.72 18.37-11.26 37.4-32.59 53-48.19zm298 59v-43.15h-107-28c-12.99-2.66-24.02-11.59-30.54-22.85-7.62-13.17-5.53-42.25-5.46-58 0.03-6.13 1.16-14.32 3.47-20 6.43-15.73 22.61-26.92 39.53-27h25c6.81 0 22.19-0.6 28 0.92 18.38 4.82 32.13 22.23 33 41.08h42c-0.02-31.5-17.79-60.9-46-75.24-3.9-1.99-7.79-4.05-12-5.32-19.7-5.96-48.03-4.68-69-4.44-22.45 0.27-43.63 8.74-59.96 24.17-16.81 15.87-25.77 38.93-26.04 61.83-0.21 17.99-1.26 48.46 3.15 65 10.05 37.67 44.35 62.55 82.85 63h127zm-298-171v57c-0.02 10.66-3.62 11.62-11 19l-18 18c-15.74 15.74-32.03 33.97-56 34-6.37 0.01-9.9-0.08-16-2.46-3.51-1.38-8.03-3.77-11-6.07-16.76-12.93-17-28.36-17-47.47v-25c0.04-26.01 15.62-46.96 43-47h86zm-937 4.29c13.35-1.27 27.11-0.12 39 6.58 30.64 17.27 39.88 59.51 19.56 88.13-10.27 14.46-25.17 22.57-42.56 24.71-6.56 0.81-13.58 0.06-20-1.37-45.69-10.24-61.09-67.6-29-100.49 3.5-3.59 4.69-5.17 9-8.1 7.37-5.02 15.25-8.01 24-9.46zm146 144c13.92-1.3 29.62 2.33 41 10.64 27.18 19.82 33.99 61.03 11.7 87.07-3.65 4.27-9.96 10.59-14.7 13.53-12.82 7.96-22.51 8.64-37 8.47-6.33-0.08-10.09-1.28-16-3.34-20.78-7.27-37.73-29.4-38-51.66-0.11-9.5-0.2-16.83 3.09-26 8.23-22.95 26.61-35.16 49.91-38.71zm364 135.71v299h42v-227l117 117c7.55 7.55 11.98 9.03 12 20v90h42v-299h-42v141l-35-34-94-94c-7.72-7.72-9.78-12.98-21-13h-21zm768 0v299h42v-171h86c24.81 0.04 42.96 20.76 43 45v126h42v-130c-0.05-34.69-23.32-67.25-56-78.91-9.05-3.23-22.39-5.08-32-5.09h-83v-85h-42zm342 0v85h-43v43h43v60 30c0.04 25.43 14.74 50.04 35 64.84 6.69 4.89 13.23 8.28 21 11.11 9.13 3.31 21.3 5.03 31 5.05h40v-43h-42c-23.96-0.04-42.96-19.04-43-43v-85h42v-43h-42v-85h-42zm-750 1.48c-4.4 0.95-7.45 1.67-10.96 4.74-15.1 13.2-5.81 41.22 18.96 36.44 14.06-2.71 19.52-20.15 12.52-31.65-4.37-7.18-12.38-10.32-20.52-9.53zm-1010 3.81c11.12-1.06 22.69-0.63 33 4.02 8.5 3.83 15.67 8.56 21.79 15.69 18.22 21.24 19.01 54.99 1.69 77-10.25 13.03-25.21 20.76-41.48 22.72-7.13 0.85-15.14 0.01-22-2.06-39.42-11.91-55.71-57.59-33.07-91.66 4.24-6.38 8.76-11.5 15.07-15.96 7.7-5.43 15.77-8.22 25-9.75zm140 0c21.61-2.05 41.98 3.47 56.32 20.8 16.7 20.18 17.13 54.02 1.52 74.9-9.99 13.36-25.49 21.71-41.84 23.72-6.56 0.81-13.58 0.06-20-1.37-7.7-1.73-12.44-4.11-19-8.42-35.48-23.32-36.36-76.39-1-100.17 7.51-5.05 15.11-7.99 24-9.46zm142 0.01c15.18-1.51 28.75 0.09 42 8.16 27.56 16.78 36.34 55.1 19.53 82.54-10.06 16.43-26.61 26.39-45.53 28.71-21.67 2.67-45.29-9.13-56.54-27.71-13.3-21.97-11.39-55.02 6.71-73.91 9-9.39 21.15-15.4 33.83-17.79zm1051 293.7c-1.06 22.97-19.83 41.96-43 42h-85v43h83c12.89-0.06 27.33-2.77 39-8.32 28.84-13.71 47.95-43.89 48-75.68v-215h-101c-27.93 0-50.7-1.88-75 15.21-5.38 3.78-11.17 8.78-15.41 13.79-6.12 7.23-11.56 15.17-15.14 24-8.69 21.45-6.49 49.88-6.45 73 0.05 30.43 13.84 58.35 40 74.77 23.05 14.47 42.17 13.23 68 13.23h63zm-384-213v42h43v119l-1.6 8.4-8.4 1.6h-33v42h127v-42h-42v-171h-85zm384 42v128h-71c-18.28 0-31.91 1.81-45.91-13.01-9.29-9.85-12.07-20.79-12.09-33.99v-25c0-19.11 0.24-34.54 17-47.47 2.97-2.3 7.49-4.69 11-6.07 5.66-2.21 9.06-2.45 15-2.46h86z" fill="#fff" stroke="#000"/>
</svg>
