<?xml version="1.0" encoding="UTF-8"?>
<svg width="13.633in" height="5.8333in" version="1.1" viewBox="0 0 4090 1750" xmlns="http://www.w3.org/2000/svg" xmlns:cc="http://creativecommons.org/ns#" xmlns:dc="http://purl.org/dc/elements/1.1/" xmlns:rdf="http://www.w3.org/1999/02/22-rdf-syntax-ns#">
<metadata>
<rdf:RDF>
<cc:Work rdf:about="">
<dc:format>image/svg+xml</dc:format>
<dc:type rdf:resource="http://purl.org/dc/dcmitype/StillImage"/>
<dc:title/>
</cc:Work>
</rdf:RDF>
</metadata>
<path d="m2319.3 138.6l-18.8 50-31.39 82-61.39 160s-29.82 78-29.82 78-29.18 76-29.18 76l-8.42 22c-0.96 2.41-2.72 7.82-4.51 9.4-2.33 2.07-13.1 2.58-16.49 2.6l-24 1-15 1-41 2-13 1-24 1-13 1-19 1-19 1.04h-9l-10 0.96-41 2-16 1-17 1-19 1.04h-9l-10 0.96-19 1.04h-8l-10 0.96-43 2-19 1-18 1-16 1-14 1h-11l-10 1-25 1-14 1 30 22.88 68 49.54 203 147.87 80 58.29 21 15.27 7.46 7.19-2.46 10.96-7.98 24-30.35 94-37.01 114-39 120-26 80-11.66 36 42-25.58 68-42 225-138.84 91-56.18 23-14.21 11-5.56 11 5.68 23 14.5 91 57.5 204 128.74 77 48.64 50 31.31-11.98-38-26-82-51.68-163s-23.01-73-23.01-73l-31.35-99-7.98-25-2.46-10.96 8.46-7.92 21-15.49 85-62.34 56-41.14 158-116 72-52.78 33-25.37h-25l-16 1h-55l-17 1h-51l-17 1h-55l-17 1h-51l-15 1h-57l-17 1h-53l-15 1h-55l-16 1h-18c-2.28 0-5.76 0.21-7.73-1.02-3.24-2.03-8.06-17.66-9.69-21.98l-27.18-72-41.82-111-64.16-170s-29.74-79-29.74-79l-8-21c-1.4-3.8-2.37-8.47-5.68-11z" fill="#f00"/>
<path d="m1797 305.56c-13.38 4.67-12.17 13.11-14.45 24.44l-3.89 15c-2.08 9.3-3.62 19.49-3.66 29l-0.96 11v14l-2.76 22-0.57 10-3.28 17-2.43 29-1 39-3 30c-0.18 16.02-2.71 13.81-3.92 25v12l-2.12 23v15l-0.96 12v17s-3.09 33-3.09 33v11c-0.98 7.35-3.89 8.3-3.91 22l-2 29v18l-1 13v25l-3 33 0.68 18-0.67 10s2.99 36 2.99 36v42l1 17v38l2 24v105s-1.83 19-1.83 19-1.45 27-1.45 27l-8.62 46v10l-1.1 23c0.02 13.41 1.51 14.63 7.19 26 4.85 9.7 2.19 6.35 9.33 16 3.6 4.87 6.54 10.59 12.48 12.99 13.97 5.67 32.82-8.14 40.36-18.99 4.3-6.2 4.24-11.95 4.73-19l0.87-8-1.25-22c-0.91-7.4-1.7-7.59-1.71-16l-1-57-2-22v-65l2-25v-74l1-17v-39l3-28v-17l4.08-32v-13l1.92-19v-12l1-15v-19l3.06-28v-9l3.5-16s2.44-29 2.44-29l1-33 5.72-41 1.57-15c0.69-5.63 1.63-7.78 1.71-14l1-20c0.02-12.21 1.42-23.94 3.29-36l2.9-12 2.77-20v-9l1.04-18 1.91-18s-1.91-22-1.91-22v-18l-1-13c-0.19-16.6-3.36-23.62-7.1-39l-4.12-23c-1.46-4.64-4.3-8.7-6.52-13-3.42-6.61-5.73-11.11-13.26-13.87-3.52-1.29-7.31-1.17-11-1.13-2.67 0.04-3.38 0.1-6 0.56zm1691 65.86c-5.5 0.8-11.06 0.89-16 3.8-5.56 3.28-6.85 6.6-9.87 11.78-7.33 12.54-8.31 11.39-8.13 27 0.11 8.93 2.58 23.27 4.88 32 1.74 6.58 4.26 12.08 5.12 19v9l3 27v67l4 33v54s3 35 3 35 0.82 83 0.82 83c0.2 2.79-0.59 8.03-0.98 11-1.25 9.48-7.44 18.73-16.84 21.78-5.24 1.7-12.41 1.22-18 1.22h-32c-10.95 0.02-12.21 1.59-22 5.14-3.8 1.38-7.51 2.25-10.47 5.25-5.73 5.79-7.44 14.77-7.3 22.61-0.26 3.27-0.35 6.78 0 10 1.3 5.9 7 19.66 11.87 23.01 6.19 4.25 19.45 5.12 26.9 6.28 0 0 28 7.8 28 7.8 4.8 1.78 6.95 3.94 11 6.69l9 5.75c4.69 3.63 14.8 17.14 17.79 22.47 2.26 4.02 2.81 8.68 4.29 13 3.58 10.45 7.65 21.79 7.91 33 0.4 17.97-8.8 17.55-8.94 33v13l1.87 12v11c0.12 9.06 2.66 16.33 3.94 25v12l3.14 29v20l1 15v17l2 29c0.02 13.38 3.98 15.33 4 28v72c0.01 6.8 0.91 22.56 4.7 27.96 2.4 3.42 6.81 5.77 10.3 8.04 15.23 9.92 31.41 12.5 44.91-2 3.22-3.47 11.91-17.62 13.53-22 1.29-3.49 1.51-6.34 1.56-10v-23s-1.08-16-1.08-16v-14l-1.98-13v-10c-1.64-10.84-3.87-8.95-3.94-23l-3-26v-14l-1-16-2.28-33-3.55-21s-1.34-16-1.34-16l-1.83-17v-11l-0.96-12v-12l-2.5-31c-1.46-8.24-3.49-9.61-3.54-19l-1.82-21c-0.63-9 4.63-14.16 7.05-22l4.3-17c5.15-11.58 14.95-13.98 26.47-14 20.03-0.03 34.74-3.3 54-7.77 12.23-2.83 12.88-0.06 26-6.93 8.1-4.24 18.99-8.71 19.89-19.3 0.83-9.64-8.6-16.03-14.61-22.17-8.1-8.28-12.01-13.77-24.28-13.83h-70c-5.27-0.01-10.58 0-14.96-3.43-5.37-4.2-6.19-9.52-8.06-15.57-3.32-10.68-6.84-20.64-6.98-32v-89-197l-1.21-16v-17l-7.34-31c-3.39-16.6 0.1-12.53-8.67-29-2.23-4.19-3.62-7.44-7.8-10.18-5.49-3.62-16.54-4.18-22.98-3.4zm-2466 44.05c-5.93 1.4-7.06 2.38-12 5.81-12.37 8.6-14.98 17.1-15 31.72v37l-1 17v39l-3 33v24l-4 31v27l-2 21v38l-1 15v45l-1.83 18c-2.36 24.61-0.55 16.59-6.28 42l-3.59 21-5.43 12-4.86 13c-1.79 3.49-4.04 5.86-6.24 9-7.14 10.22-14.14 19.82-24.77 26.9-3.12 2.07-13.58 7.81-17 8.88-11.44 3.6-24.3 1.71-29.01 16.22-0.75 2.31-0.93 4.59-0.97 7-0.25 12.37 6.12 18.54 14.98 26.28 13.14 11.48 19.61 14.84 34 23.6 7.87 4.8 10.25 3.57 17.82 12.12 11.16 12.62 4.25 27.15 4.18 42v15l-1.04 15v17l-1.45 13c-0.51 8.1 3.61 14.55 3.28 21-0.33 6.61-1.85 21.93-3.53 28l-6.36 18-2.91 22-7.09 21-4.62 27-4.84 13c-1.56 5.24-1.97 12.43-2.72 18-0.77 5.72-2.13 10.07-1.55 16 0.34 3.42 1.7 10.01 3.27 13 3.87 7.38 18.02 19.75 26.56 20.82 11.66 1.45 16.33-2.36 26-6.93 3.24-1.53 7.92-2.87 9.83-6.1 1.35-2.29 1.22-6.16 1.16-8.79 0 0-2.99-34-2.99-34l-1-33c0.22-18.36 4.49-18.52 9.25-33l3.5-13c1.68-5.06 9.2-19.37 13.29-22.35 5.33-3.88 14.55-3.03 21.96-5.4l16-5.59s23-3.56 23-3.56 19-6.62 19-6.62 17-3.26 17-3.26l13-5.75s17-4.22 17-4.22l14-6.16s14-4.16 14-4.16l10-5.04 13-5.21 10-5.69 9-3.8 10-5.87 8-3.84 8-5.39 8-4.71c9.37-6.49 19.31-16.05 27.28-24.21 4.87-4.98 9.93-9.6 14.19-15.17 2.67-3.48 3.83-6.37 5.98-10 10.43-17.6 16.52-33.32 16.55-54v-14c-0.15-12.09-1.85-15.67-7.22-26-2.19-4.23-3.31-8.08-6.08-12-5.58-7.88-18.34-18.57-26.7-23.53l-8-3.98c-16.9-9.31-10.03-4.49-24-9.95-4.66-1.83-9.17-4.85-14-6.02l-20-2.97c-10.13-2.07-10.43-4.44-24-6.27l-15-1.28-19-1h-50c-4.78 0.01-16.44 1.03-21 1.81-10.98 2.58-18.29 8.2-29 0-1.8-1.61-4.31-4.06-5.79-5.81-7.44-8.78-4.84-15.99-3.49-26l2.37-26 0.91-10c0.13-11.03 1.41-22.11 3.32-33l3.22-13s3.46-39 3.46-39c0.04-23.24 8.73-44.83 9-68l1-13c0.09-8.22 0.2-11.73 1.43-20l5.13-27s2.53-27 2.53-27l0.91-10c0.11-10.07 1.63-24.07 3.46-34l2.53-10c1.18-5.52 3-19.41 3.01-25v-20c-0.02-11.19-1.32-11.32-5.69-21-5.17-11.46-1.96-7.96-10.65-19-7.98-10.15-22.54-25.19-36.66-23.53zm-756 17.95l-32 1.87-20 3.61-16 4.02-24 2.36s-26 7.06-26 7.06l-22 3.59s-17 6.58-17 6.58l-15 3.26c-5.5 1.7-8.24 4.16-13 6.33l-8 3.22c-10.1 4.72-24.33 14.17-30.17 23.68-7.21 11.73-2.54 15.56 0.74 27 2.03 7.07 3.48 13.45 9.52 18.47 4.8 3.98 18.11 7.68 26.7 17.54 2.99 3.43 3.92 6.2 6.08 9.99 9.5 16.64 7.09 14.81 9.41 33 0.72 5.59 1.65 7.93 1.72 14v39l-2 23-1 41c-0.01 4.86-0.18 9.38-1.95 14-4.86 12.64-18.55 18.98-28.01 28.08-9.08 8.74-23.76 24.36-28.56 35.92-2.17 5.22-4.06 17.23-4.39 23-0.29 5.09 1.02 14.96 4.33 18.89 3.4 4.05 8.16 4.62 12.58 7.01l8 4.78 11 4.7 9 5.71c3.65 2.26 8.68 4.72 11.35 8.09 4.32 5.43 4.38 17.22 3.19 23.82l-3.32 13c-0.39 3.84-0.18 7.17 0 11l-2.14 15v12c-0.09 7.37-1.75 14.62-0.79 22 1.18 9.07 4.33 12.37 4.23 17-0.11 4.62-4.5 11.33-4.52 26v30l1 16v53l2 23v15l4 31 3.04 29v16l1.17 11c-0.19 3.44-0.28 5.52 0 9l7.34 31c2.41 11.81 0.59 17.49 6.21 29l7.23 16.91c5.01 7.48 15.49 10.51 24.01 11 8.1 0.46 18.98-2.56 24.2-9.09 2-2.51 4.45-8.59 6.05-11.82 3.52-7.11 6.23-14.9 5.45-23-1.52-15.93-7.83-19.47-9.66-37v-9l-1.04-16-2.44-28c-1.72-10.94-3.49-8.43-3.56-22 0 0-3-31-3-31l-1-63 1-16c0.06-12.79 1.49-25.33 3.28-38l2.54-14c0.41-5.45-3.63-20.44-4.74-27l-3.54-38-3.63-12c-1.67-5.82-3.84-19.99-3.77-26v-25c1.58-11.65 4.45-17.44 7.43-28l3.91-16c3.05-7.62 15.6-26.08 21.56-31.96 4.71-4.64 7.66-5.39 12.96-8.73 4.34-2.74 6.82-4.61 12-5.8 6.34-1.45 17.24-1.7 23 1.58 10.23 5.82 14.99 17.52 18.69 27.91 5.69 15.97 8.1 18.09 8.31 36 0.07 5.61 2.23 25.62 3.5 31l4.07 15c1.02 6.07 2.4 14.99 2.43 21 0.03 5.92 0.45 12.14 1.3 18l8.08 35 2.08 26 6.73 24 3.27 26 6.88 24 3.33 24 6.45 19 4.04 23 6.36 18 4.03 20 6.01 14 3.66 17 6.03 14 3.84 14 5.46 12 4.66 14 5.47 10 3.79 11s5.63 10 5.63 10l4.85 11s6.65 10 6.65 10c2 3.76 2.37 6.49 5.61 9.81 5.73 5.89 16.59 6.88 23.78 3.19 6.53-3.35 17.34-15.86 19.76-23 1.81-5.32 1.32-16.98 1.25-23-0.18-15.24-3.77-18.82-6.19-31l-2.71-19-6.65-20-3.35-22-6.2-19-3.82-24-7.05-17-3.58-14-6.41-15-3.59-15-6.09-14-3.91-16-6.09-14-3.57-16-6.35-16-4.53-19-5-12-3.66-19-6.77-19-3.92-21c-1.97-6.62-4.3-9.14-6.11-18l-3.25-25-7.58-27-0.79-14-3-29c-0.91-9.08-4.45-18.18-3.74-27 0.48-5.88 3.25-9.8 5.6-15l3.84-9c3.41-5.99 17.76-21.9 23.51-25.52 4.07-2.57 7.83-3.15 11.96-4.99 6.16-2.75 16.64-8.69 22-12.72 15.77-11.88 36.66-32.5 47.78-48.77l5.77-10 14.08-23 4.86-12 6.12-12 3.85-14c3.08-7.87 5.42-8.68 5.54-18 0.18-15.37-2.21-18.27-5.63-32-1.65-6.66-2.06-13.67-4.88-20 0 0-5.52-10-5.52-10-7.2-14.3-12.23-23.35-24.06-34.83-6.43-6.24-20.07-16.19-27.91-20.65l-7-3.42-10-5.78-13-4.77-12-5.45-19-3.98s-18-6.22-18-6.22c-6.05-1.45-34.58-3.26-41-2.48zm3021 21.19c-18.23 2.86-32.78 18.7-33 37.39-0.15 12.83 0.54 24.72 12.17 32.87 7.2 5.05 24.36 4.34 32.83 2.8 5.66-1.03 8.85-4.63 13-8.25 8.06-7.04 12.95-12.45 13-23.42 0.02-4.4 0.41-14.25-0.85-18-2.29-6.78-16.39-21.08-23.15-23.39-3.93-1.04-9.92-0.69-14 0zm-347 6.53l-22 2.86c-7.53 0.08-18.76-0.03-26 1.52l-16 6.12c-4.3 1.45-10.11 2.64-14 4.77-10.01 5.49-14.87 16.59-15 27.59v110 132l4 31 1.17 25 1.83 18v27l1 17v23l1.92 18v19l4.08 30 1.17 28 1.73 15c-0.71 15.86-8.87 21.54-8.9 40v52l2 23c0.02 12.89 1.57 11.36 3.54 22l2.85 18 2.54 24 6.71 16 2.84 10c1.5 3.66 3.37 5.78 5.43 9 4.93 7.7 6.14 12.6 16.09 15.24 12 3.18 17.05-2.14 26-8.15 7.06-4.74 12.86-7.97 18.07-15.09 4.56-6.22 5.75-13.38 12.94-17.17 4.44-2.33 11.53-3.45 22.99-10.28 13.16-7.85 23.93-17.48 36-26.65 22.29-16.94 30.18-24.08 50-43.9l21.68-23 14.99-20 14.54-18s5.25-9 5.25-9 18.32-31 18.32-31l6.32-11 3.85-12 6.12-12 4.39-15c1.86-4.76 4.76-8.99 6.03-14l3.41-19 7.04-25v-9l1.14-9v-14l1.83-16v-14l-1.82-13c-0.55-8.06-0.39-17.09-2.1-25l-6.25-19-3.49-17c-1.72-5.2-3.9-7.49-5.9-12l-3.68-10-11.14-19c-9.02-14.64-17.27-19.27-31.53-27.43-2.98-1.7-6.88-4.31-10-5.44-9.32-3.38-26.62 0.39-27.88-14.13-0.41-4.74 2.42-17.55 4.39-22 2.3-5.16 3.97-6.57 6.13-13l3.82-13 5.99-13 3.62-13 5.84-12 3.45-13 6.54-14c2.31-6.79 2.18-14.9 2.1-22-0.14-11.95-1.84-15.79-7.22-26-8.05-15.27-11.94-19.93-26.78-29.43l-8-5.17-14-4.85c-4.92-1.99-8.73-4.66-14-5.87l-21-1.85s-24-2.69-24-2.69h-25-36zm-2716 42h56c5.11-0.13 31.76 3.01 36 4.47l15 7.94 7 2.98c9.92 5.62 28.75 24.35 35.88 33.47 6.87 8.78 9.98 11.17 10.12 23 0.05 4.24 0.29 8.97-1.11 13-1.69 4.86-6.21 10-9.5 14-7.9 9.58-18.5 19.21-27.39 28l-14 13.83c-10.25 9.27-21.81 18.13-33 26.24l-10 6.15-22 14.32-10 4.82-9 6.11-9 3.85-11 6.35-11 3.79-11 5.64s-14 4.59-14 4.59c-7.24 2.53-10.95 5.11-19 5.3-3.71 0.08-7.71 0.16-10.98-1.84-4.17-2.56-6.19-6.94-8.26-11.15-5.24-10.61-7.74-19.1-7.76-31v-84-24c0.02-12.82 2.31-16.73 7.13-28l3.77-10c3.13-6.78 12.07-16.89 18.1-21.21 3.44-2.46 19.19-11.21 23-12.35l26-4.3zm2724 21.19c10.01-1.12 14.83 0.66 24 0.67 0 0 17 0.83 17 0.83 14.27 1.38 12.09 1.29 25 7.39 5.98 2.82 12.14 4.46 16.47 9.82 5.64 6.98 6.54 16.36 6.53 24.96-0.01 7.48-1.06 14.17-4.33 21-8.07 16.88-29.77 32.35-45.67 41.54l-13 5.92c-14.9 8.56-11.11 4.8-24 9.99-5.13 2.07-9.15 4.93-15 4.35-4.88-0.48-7.83-2.81-12-4.82-5.66-2.73-10.26-2.62-14.58-8.02-6.04-7.54-4.1-15.44-3.51-23.96 0.44-6.33 0.9-17.14 2.33-23 1.4-5.75 3.67-8.81 5.89-14l5.25-15s5.45-9 5.45-9l4.15-9c4.28-8.21 10.7-17.38 20.02-19.67zm-2287 91.2c-15.76 4.71-22.88 20.36-30.33 33.47l-5.35 9s-3.95 10-3.95 10l-5.28 10-3.85 12-6.47 14-3.86 16-5.98 14c-1.77 6.41-1.53 12.93-5.15 19-6.76 11.33-16.18 10.06-26.78 13.21l-15 6.04-12 3.3c-13.44 4.8-35.51 16.96-37.79 32.45-1.04 7.04 4.52 22.34 10.81 25.86l15.98 4.67 9 5.15c10.74 5.72 16.85 7.05 25.79 17.33 2.76 3.18 3.6 5.54 5.66 8.99 3.94 6.6 8.06 11.67 7.36 20-0.71 8.53-4.72 10.55-7.24 16-1.71 3.69-1.56 7.06-1.57 11-0.02 11.37-0.4 21.69 1.44 33l6.3 24 3.16 23 5.66 16 4.2 18 6.04 12 4.54 15 20.29 37 15.98 21c3.24 3.99 6.75 8.38 10.4 11.96 4.63 4.53 28.41 22.5 33.99 25.68l10 4.48 10 5.36c5.15 2.22 19.25 4.45 25 4.52 5.31 0.06 25.46-2.01 30-3.61 3.57-1.26 8.4-4.89 12-6.96 6.89-3.97 14.06-7.96 19.68-13.73 4.99-5.13 17.77-26.84 20.56-33.7l3.46-11c2.08-5.84 5.46-10.83 6.78-17l1.81-18c0.91-6.98 4.06-21.52 3.61-28-0.46-6.73-5.44-14.39-3.43-25 1.5-7.99 5.52-11.35 8-17l3.62-12 5.69-13c0.93-3 2.17-17.46 2.22-21 0.08-7.53 0.76-27.85-1.22-34-1.92-5.93-6.49-10.66-10.78-15-8.47-8.56-15.89-16.65-29-14.56-3.25 0.52-6.26 1.29-8.99 3.21-11.03 7.78-10.61 17.24-14.82 28.35-2.26 5.95-5.74 12.48-5 19 0.85 7.56 6.67 12.4 5.84 20-0.63 5.69-7.1 11.96-10.33 17-4.03 6.28-4.66 11.69-4.7 19 0 0-1.91 22-1.91 22-0.5 7.08-1.05 20.67-2.87 27l-6.35 15c-2.45 5.72-2.4 8.6-6.39 14-2.94 3.99-8.53 10.54-12.48 13.37-2.18 1.56-5.54 3.17-8 4.38-11.9 5.9-16.27 4.61-28-0.61-4.23-1.88-8.55-3.89-11.82-7.24-8.85-9.07-13.52-20.71-18.92-31.9-6.42-13.29-3.76-17.29-7-29l-3.5-11-1.89-12c-1.97-13.72-1.85-13.13-1.87-27l-1-15v-87c0.01-5.07 0.22-10.32 2.41-15 5.27-11.23 19.13-14.86 30.59-15 11.81-0.14 26.51-2.09 38-4.9l15-4.29 21-2.27s19-6.33 19-6.33l20-3.99c4.35-1.41 7.07-3.75 11-5.58l12-4.16c3.36-1.53 6-3.66 9-5.76 10.15-7.1 12.85-9.82 13-22.72 0.05-4.29-1.01-21.33-1.9-25l-6.1-16-3.95-13-5.73-10s-3.84-8-3.84-8c-7.3-12.85-15.73-22.71-25.02-34 0 0-13.55-15.91-13.55-15.91l-8.91-8.09-18-16.16c-9.83-8.79-14.31-14.82-28-14.84h-38c-6.18 0-16.29-0.41-22 0.53zm853-0.01c-16.48 4.54-24.7 21.4-31.98 35.48l-5.7 10-5.21 13s-5.04 10-5.04 10l-4.53 15-5.79 13-3.52 15-6.19 15c-1.5 4.9-1.69 9.39-4.4 13.98-5.39 9.13-15.73 7.42-24.64 10.06l-16 6.26-11 3.06c-5.74 1.94-7.16 3.81-12 6.27l-8 3.72c-10.02 5.58-18.61 14.4-17.68 26.65 0.63 8.28 2.67 17.87 10.69 22 4.88 2.51 10.23 2.07 16.99 5.37l19 9.59c6.42 4.18 20.53 19 23.39 26.04 1.09 2.68 2.06 9.02 2.29 12 0.93 12.27-7.47 15.73-7.68 33-0.23 20.24 3.91 27.48 6.57 46 0 0 1.89 19 1.89 19l6.66 20 4.1 20 5.72 13 4.53 14 5.6 11s3.33 9 3.33 9 6.65 10 6.65 10 4.42 9 4.42 9c5 8.43 15.76 21.49 22.38 29 8.87 10.08 28.49 26.87 40.15 33.48l10 4.41 10 5.23c6.19 2.66 19.21 4.8 26 4.88 7.04 0.08 23.61-1.74 30-4.13l9-4.61c17.72-9.14 25.8-17.94 35.31-35.26 0 0 5.17-9 5.17-9l3.97-11 5.78-13 3.22-21c2.61-12.8 5.52-14.29 6.46-31 0.65-11.53-7.78-16.43-6.41-26 0.84-5.77 3.97-9.15 6.6-14l8.97-20c2.93-7.48 2.37-13.49 3.1-21l2.83-24c0.08-7.39 0.06-16.06-2.76-23-2.22-5.45-6.17-8.93-10.24-13-3.27-3.28-8.18-8.51-12-10.86-7.74-4.74-20.14-3.97-26.96 2.07-10.54 9.34-11.32 19.3-14.28 31.79-1.08 4.57-2.92 8.16-2.65 13l3.7 17c1.03 12.48-9.47 16.85-11.48 28l-1.5 21-4.56 21-3.17 25c-1.48 6.1-10.55 22.05-14.57 27-6.31 7.79-19.11 17.16-29.53 17.79-4.98 0.3-10.59-2.44-15-4.54-4.27-2.02-8.32-3.41-11.96-6.58-4.26-3.71-4.77-6.3-7.59-10.67-3.84-5.96-6.25-7.65-8.7-15 0 0-3.06-9-3.06-9-1.88-4.2-3.96-7.44-5.2-12l-4.77-33-3.26-14-0.74-13-2.72-24v-85c0.01-4.82-0.03-8.6 2.41-12.99 4.93-8.82 20.82-14.89 30.59-15.01 9.28-0.11 26.11-1.56 35-3.68 0 0 17-5.06 17-5.06s24-2.72 24-2.72c7.78-1.44 11.49-4.13 18-6.1 16.35-4.94 11.28-0.24 31-9.13 11.81-5.32 8.68-1.99 22-10.62 8.52-5.52 11.53-9.11 11.96-19.69 0.23-5.75-1.25-11.31-1.79-17-0.65-6.74-0.26-13.32-2.1-20-1.39-5.07-3.66-7.37-5.61-12l-4.84-14s-4.75-8-4.75-8l-5.34-10c-5.99-9.74-13.56-18.32-20.95-27-12.84-15.08-10.01-14.64-26.58-28.43-6.5-5.41-26.79-24-33-26.42-3.26-1.27-6.58-1.14-10-1.15l-59 0.52zm2370 0c-16.48 4.54-24.7 21.4-31.98 35.48l-5.7 10-5.21 13s-5.04 10-5.04 10l-4.53 15-5.79 13-3.52 15-6.19 15c-1.5 4.9-1.69 9.39-4.4 13.98-5.39 9.13-15.73 7.42-24.64 10.06l-16 6.26s-13 3.82-13 3.82l-11 5.91c-12.22 6.15-23.33 11.71-24.48 26.97-0.66 8.67 2.23 20.8 10.48 25 4.98 2.53 10.24 2.07 17 5.37 15.72 7.68 24.07 11.45 35.45 25.63 2.93 3.65 5.74 6.46 7.3 11 6.41 18.61-5.54 26.77-5.75 44-0.24 20.59 3.91 27.46 6.57 46 0 0 1.89 19 1.89 19l6.66 20 4.1 20 5.72 13 4.53 14 5.6 11s3.33 9 3.33 9 6.65 10 6.65 10 4.42 9 4.42 9c5.46 9.21 15.22 20.87 22.38 29 8.94 10.16 28.4 26.82 40.15 33.48l10 4.41 10 5.23c5.74 2.47 19.67 4.8 26 4.88 6.64 0.07 24.02-1.89 30-4.13l9-4.75c18.3-9.68 25.37-17.01 35.31-35.12 0 0 5.17-9 5.17-9l3.97-11 5.78-13 3.22-21c3-14.68 4.62-9.89 6.38-31 0.93-11.21-7.87-16.7-6.27-26 0.88-5.13 4.18-9.52 6.55-14l9.34-21c2.54-7.19 2.03-12.88 2.72-20l2.83-24c0.08-7.39 0.06-16.06-2.76-23-2.19-5.39-6.19-8.98-10.24-13-2.48-2.45-9.36-9.18-12.04-10.86-7.6-4.78-20.22-3.87-26.92 2.07-10.54 9.34-11.32 19.3-14.28 31.79-1.08 4.57-2.92 8.16-2.65 13 0.31 5.71 4.31 13.6 3.69 20-1.02 10.55-9.7 15.01-11.47 25l-1.5 21-4.56 21-3.43 26c-1.69 6.25-11.02 21.93-15.28 27-6.21 7.4-18.54 16.18-28.56 16.79-4.99 0.3-10.59-2.44-15-4.54-3.63-1.72-7.87-3.15-10.98-5.64-4.85-3.87-5.51-6.86-8.57-11.61-3.84-5.96-6.25-7.65-8.7-15 0 0-3.06-9-3.06-9-1.88-4.2-3.96-7.44-5.2-12l-4.79-34-3.24-13-0.63-13-2.83-24v-85c0.01-4.82-0.03-8.6 2.41-12.99 4.93-8.82 20.82-14.89 30.59-15.01 9.27-0.11 26.11-1.56 35-3.68 0 0 17-5.06 17-5.06s24-2.72 24-2.72c8.03-1.49 12.13-4.45 19-6.39 16.51-4.65 11.13 0.08 30-8.89l10-3.72c4.26-1.69 7.22-3.73 11-6.2 9.01-5.86 12.5-8.89 12.96-20.34 0.23-5.75-1.25-11.31-1.79-17-0.72-7.56 0.29-11.45-2.1-20-1.43-5.13-3.65-7.35-5.61-12l-4.37-13s-5.41-9-5.41-9l-5.15-10c-6.01-9.81-13.68-18.28-21.1-27-14.49-17.02-8-13.05-27.43-29.25-6.36-5.3-25.89-23.22-32-25.6-3.26-1.27-6.58-1.14-10-1.15l-59 0.52zm-624 68.95c-6.43 1.53-7.77 2.81-13 6.65-5.31 3.89-9.25 6.32-13.21 11.88-7.34 10.28-6.77 25.86-6.79 38l-2 25v23l-1 15v37s2.44 29 2.44 29l2.98 15c0 3.65-1.51 8.27-2.14 12l-3.28 31 1.1 29v8l4.04 20c0.01 6.46-2.18 10.92-2.98 17-1.67 12.69-2.18 25.21-2.16 38 0.03 17.99 2.81 20.36 7.81 36 4.18 13.08 0.93 11.46 9.45 24 1.66 2.44 2.95 4.74 4.95 6.96 14.06 15.62 31.5 7.07 42.44-6.96 2.3-2.95 4.43-5.56 6-9 2.62-5.77 2.99-10.87 3.44-17l0.82-7s-2.91-31-2.91-31v-19l-0.96-11v-15s-2.04-21-2.04-21c-0.19-16.33-1.84-17.63-3.71-32l-1.46-20-1.83-16v-52c0.01-8.76 1.12-9.69 1.83-17l1.47-18 3.08-13 2.62-29 1-33 2-26c0-3.03 0.15-6.14-1.01-9-2.01-4.98-6.78-8.64-10.99-11.71-9.59-6.97-13.51-10.57-26-8.82zm-2556 2.86c11.78-1.31 13.66 0.61 23 6.93 4.23 2.85 8.27 4.71 11.61 8.78 6.36 7.73 7 22.96 3.26 31.96-1.84 4.43-5.54 7.68-8.87 11-4.53 4.52-11.95 11.67-18 13.75-4.77 1.64-11.87 1.31-17 1.25-14.04-0.17-29.99-11.06-30.91-26-0.48-7.8 2.42-12.41 5.8-19 1.91-3.72 4.42-9.83 6.74-12.98 3.64-4.93 18.35-14.21 24.37-15.69zm852 0c12.76-1.42 13.83 1.15 24 7.22 4.51 2.69 7.99 3.74 11.01 8.47 4.75 7.44 5.06 24.86 1.85 32.98-2.86 7.21-19.24 21.85-26.86 24.2-3.63 1.12-11.89 0.85-16 0.8-15.25-0.19-30.73-14-28.82-30 0.37-3.09 1.53-6.03 2.4-9 4.56-15.61 6.92-18.31 20.42-28.15 4.67-3.41 6.24-5.09 12-6.52zm2370 0c12.76-1.42 13.83 1.15 24 7.22 4.51 2.69 7.99 3.74 11.01 8.47 4.75 7.44 5.06 24.86 1.85 32.98-2.98 7.52-19.78 22.34-27.86 24.44-3.02 0.79-11.49 0.6-15 0.56-15.4-0.19-30.54-13.94-28.83-30 0.4-3.68 1.55-6.53 2.64-10 4.72-15.09 7.08-17.59 20.19-27.15 4.67-3.41 6.24-5.09 12-6.52zm-955 21c10.66-1.15 12.84 2.71 22 6.24 12.57 4.85 8.6 3.86 19 9.06l10 4.35c6.34 3.26 19.27 11.43 25 15.79 7.12 5.41 16.65 11.2 23 17.27 6.22 5.95 18.19 21.51 22.47 28.96l3.8 8c2.21 4.41 5.19 8.25 6.68 13 1.6 5.13 4.11 25.38 4.05 31-0.07 5.81-3.15 23.6-5.09 29l-5.79 12-4.32 15-5.71 11-4.27 13-6.04 11s-3.77 9-3.77 9-5.23 9-5.23 9l-5.13 11s-5.18 8-5.18 8l-4.94 10s-6.07 9-6.07 9c-11.54 18.69-29.44 44.77-44.07 60.83l-6.23 6.21-14.33 15.79-14.74 13.45c-2.49 2.32-4.25 4.68-7.13 6.59-2.05 1.36-4.6 2.39-6.96 3.09-18.7 5.55-25.83-15.32-26-29.96v-17c0.08-6.21 0.85-7.34 1.73-13l1.73-13c1.76-9.67 3.52-13.34 3.54-24v-22c-0.02-11.01-2.41-17.01-3.86-27v-11l-3.14-35-1-53-2.22-23v-17c-1.44-7.77-3.68-10.44-3.8-19v-19l-0.94-9c-0.37-9.43 2.5-12.6 7.62-20 8.92-12.9 29.78-30.94 45.34-34.67zm-1849 237.95c10.08-0.93 39.55-0.83 49 1.17 0 0 21 7.29 21 7.29 18.32 3.5 10.66 1.08 27 9.77 4.57 2.43 8.02 3.03 11.35 7.53 3.11 4.19 4.41 11.8 4.61 16.96 0.17 4.47-0.87 14.19-3.05 18-2.18 3.82-6.52 7.12-9.91 9.92l-28 20.36-27 17.81-8 5.95-10 5.42-8 5.34-11 5.51-8 4.7-9 3.77-12 6.46-10 2.98-15 6.69c-5.02 1.8-15.59 3.02-21 3.09h-27c-7.32-0.09-17.75-0.81-20.35-9-2.84-8.94 5.28-27.7 6.91-38l2.52-21 2.88-15c0.37-9.1-3.83-15.1-3.96-26-0.05-4.61-0.41-11.81 1.13-16 2.59-7.05 7.74-10.69 13.87-14.4 3.88-2.35 9.96-6.5 14-7.82 0 0 22-3.22 22-3.22l26-5.26s29-3.02 29-3.02z" fill="#fff" stroke="#000"/>
</svg>
