<?xml version="1.0" encoding="UTF-8" standalone="no"?>
<svg
   xmlns:dc="http://purl.org/dc/elements/1.1/"
   xmlns:cc="http://creativecommons.org/ns#"
   xmlns:rdf="http://www.w3.org/1999/02/22-rdf-syntax-ns#"
   xmlns:svg="http://www.w3.org/2000/svg"
   xmlns="http://www.w3.org/2000/svg"
   id="svg3"
   version="1.1"
   viewBox="0 0 4090 1750"
   height="5.83333in"
   width="13.6333in">
  <metadata
     id="metadata9">
    <rdf:RDF>
      <cc:Work
         rdf:about="">
        <dc:format>image/svg+xml</dc:format>
        <dc:type
           rdf:resource="http://purl.org/dc/dcmitype/StillImage" />
        <dc:title></dc:title>
      </cc:Work>
    </rdf:RDF>
  </metadata>
  <defs
     id="defs7" />
  <path
     style="fill:#ff0000;fill-opacity:1;stroke:none;stroke-width:1;stroke-opacity:1"
     id="Selection-3"
     d="m 2319.3403,138.59885 c 0,0 -18.8,50 -18.8,50 0,0 -31.39,82 -31.39,82 0,0 -61.39,160 -61.39,160 0,0 -29.82,78 -29.82,78 0,0 -29.18,76 -29.18,76 0,0 -8.42,22 -8.42,22 -0.96,2.41 -2.72,7.82 -4.51,9.4 -2.33,2.07 -13.1,2.58 -16.49,2.6 0,0 -24,1 -24,1 0,0 -15,1 -15,1 0,0 -41,2 -41,2 0,0 -13,1 -13,1 0,0 -24,1 -24,1 0,0 -13,1 -13,1 0,0 -19,1 -19,1 0,0 -19,1.04 -19,1.04 0,0 -9,0 -9,0 0,0 -10,0.96 -10,0.96 0,0 -41,2 -41,2 0,0 -16,1 -16,1 0,0 -17,1 -17,1 0,0 -19,1.04 -19,1.04 0,0 -9,0 -9,0 0,0 -10,0.96 -10,0.96 0,0 -19,1.04 -19,1.04 0,0 -8,0 -8,0 0,0 -10,0.96 -10,0.96 0,0 -43,2 -43,2 0,0 -19,1 -19,1 0,0 -18,1 -18,1 0,0 -16,1 -16,1 0,0 -14,1 -14,1 0,0 -11,0 -11,0 0,0 -10,1 -10,1 0,0 -25,1 -25,1 0,0 -14,1 -14,1 0,0 30,22.88 30,22.88 0,0 68,49.54 68,49.54 0,0 203,147.87 203,147.87 0,0 80,58.29 80,58.29 0,0 21,15.27 21,15.27 0,0 7.46,7.19 7.46,7.19 0,0 -2.46,10.96 -2.46,10.96 0,0 -7.98,24 -7.98,24 0,0 -30.35,93.99995 -30.35,93.99995 0,0 -37.01,114 -37.01,114 0,0 -39,120 -39,120 0,0 -26,80 -26,80 0,0 -11.66,36 -11.66,36 0,0 42,-25.58 42,-25.58 0,0 68,-42 68,-42 0,0 225,-138.84 225,-138.84 0,0 91,-56.18 91,-56.18 0,0 23,-14.21 23,-14.21 0,0 11,-5.56 11,-5.56 0,0 11,5.68 11,5.68 0,0 23,14.5 23,14.5 0,0 91,57.5 91,57.5 0,0 204,128.74 204,128.74 0,0 77,48.64 77,48.64 0,0 50,31.31 50,31.31 0,0 -11.98,-38 -11.98,-38 0,0 -26,-82 -26,-82 0,0 -51.68,-163 -51.68,-163 0,0 -23.01,-73 -23.01,-73 0,0 -31.35,-98.99995 -31.35,-98.99995 0,0 -7.98,-25 -7.98,-25 0,0 -2.46,-10.96 -2.46,-10.96 0,0 8.46,-7.92 8.46,-7.92 0,0 21,-15.49 21,-15.49 0,0 85,-62.34 85,-62.34 0,0 56,-41.14 56,-41.14 0,0 158,-116 158,-116 0,0 72,-52.78 72,-52.78 0,0 33,-25.37 33,-25.37 0,0 -25,0 -25,0 0,0 -16,1 -16,1 0,0 -55,0 -55,0 0,0 -17,1 -17,1 0,0 -51,0 -51,0 0,0 -17,1 -17,1 0,0 -55,0 -55,0 0,0 -17,1 -17,1 0,0 -51,0 -51,0 0,0 -15,1 -15,1 0,0 -57,0 -57,0 0,0 -17,1 -17,1 0,0 -53,0 -53,0 0,0 -15,1 -15,1 0,0 -55,0 -55,0 0,0 -16,1 -16,1 0,0 -18,0 -18,0 -2.28,0 -5.76,0.21 -7.73,-1.02 -3.24,-2.03 -8.06,-17.66 -9.69,-21.98 0,0 -27.18,-72 -27.18,-72 0,0 -41.82,-111 -41.82,-111 0,0 -64.16,-170 -64.16,-170 0,0 -29.74,-79 -29.74,-79 0,0 -8,-21 -8,-21 -1.4,-3.8 -2.37,-8.47 -5.68,-11 z" />
  <path
     style="fill:#ffffff;fill-opacity:1;stroke:none"
     d="M 1797.00,305.56            C 1783.62,310.23 1784.83,318.67 1782.55,330.00              1782.55,330.00 1778.66,345.00 1778.66,345.00              1776.58,354.30 1775.04,364.49 1775.00,374.00              1775.00,374.00 1774.04,385.00 1774.04,385.00              1774.04,385.00 1774.04,399.00 1774.04,399.00              1774.04,399.00 1771.28,421.00 1771.28,421.00              1771.28,421.00 1770.71,431.00 1770.71,431.00              1770.71,431.00 1767.43,448.00 1767.43,448.00              1767.43,448.00 1765.00,477.00 1765.00,477.00              1765.00,477.00 1764.00,516.00 1764.00,516.00              1764.00,516.00 1761.00,546.00 1761.00,546.00              1760.82,562.02 1758.29,559.81 1757.08,571.00              1757.08,571.00 1757.08,583.00 1757.08,583.00              1757.08,583.00 1754.96,606.00 1754.96,606.00              1754.96,606.00 1754.96,621.00 1754.96,621.00              1754.96,621.00 1754.00,633.00 1754.00,633.00              1754.00,633.00 1754.00,650.00 1754.00,650.00              1754.00,650.00 1750.91,683.00 1750.91,683.00              1750.91,683.00 1750.91,694.00 1750.91,694.00              1749.93,701.35 1747.02,702.30 1747.00,716.00              1747.00,716.00 1745.00,745.00 1745.00,745.00              1745.00,745.00 1745.00,763.00 1745.00,763.00              1745.00,763.00 1744.00,776.00 1744.00,776.00              1744.00,776.00 1744.00,801.00 1744.00,801.00              1744.00,801.00 1741.00,834.00 1741.00,834.00              1741.00,834.00 1741.68,852.00 1741.68,852.00              1741.68,852.00 1741.01,862.00 1741.01,862.00              1741.01,862.00 1744.00,898.00 1744.00,898.00              1744.00,898.00 1744.00,940.00 1744.00,940.00              1744.00,940.00 1745.00,957.00 1745.00,957.00              1745.00,957.00 1745.00,995.00 1745.00,995.00              1745.00,995.00 1747.00,1019.00 1747.00,1019.00              1747.00,1019.00 1747.00,1124.00 1747.00,1124.00              1747.00,1124.00 1745.17,1143.00 1745.17,1143.00              1745.17,1143.00 1743.72,1170.00 1743.72,1170.00              1743.72,1170.00 1735.10,1216.00 1735.10,1216.00              1735.10,1216.00 1735.10,1226.00 1735.10,1226.00              1735.10,1226.00 1734.00,1249.00 1734.00,1249.00              1734.02,1262.41 1735.51,1263.63 1741.19,1275.00              1746.04,1284.70 1743.38,1281.35 1750.52,1291.00              1754.12,1295.87 1757.06,1301.59 1763.00,1303.99              1776.97,1309.66 1795.82,1295.85 1803.36,1285.00              1807.66,1278.80 1807.60,1273.05 1808.09,1266.00              1808.09,1266.00 1808.96,1258.00 1808.96,1258.00              1808.96,1258.00 1807.71,1236.00 1807.71,1236.00              1806.80,1228.60 1806.01,1228.41 1806.00,1220.00              1806.00,1220.00 1805.00,1163.00 1805.00,1163.00              1805.00,1163.00 1803.00,1141.00 1803.00,1141.00              1803.00,1141.00 1803.00,1076.00 1803.00,1076.00              1803.00,1076.00 1805.00,1051.00 1805.00,1051.00              1805.00,1051.00 1805.00,977.00 1805.00,977.00              1805.00,977.00 1806.00,960.00 1806.00,960.00              1806.00,960.00 1806.00,921.00 1806.00,921.00              1806.00,921.00 1809.00,893.00 1809.00,893.00              1809.00,893.00 1809.00,876.00 1809.00,876.00              1809.00,876.00 1813.08,844.00 1813.08,844.00              1813.08,844.00 1813.08,831.00 1813.08,831.00              1813.08,831.00 1815.00,812.00 1815.00,812.00              1815.00,812.00 1815.00,800.00 1815.00,800.00              1815.00,800.00 1816.00,785.00 1816.00,785.00              1816.00,785.00 1816.00,766.00 1816.00,766.00              1816.00,766.00 1819.06,738.00 1819.06,738.00              1819.06,738.00 1819.06,729.00 1819.06,729.00              1819.06,729.00 1822.56,713.00 1822.56,713.00              1822.56,713.00 1825.00,684.00 1825.00,684.00              1825.00,684.00 1826.00,651.00 1826.00,651.00              1826.00,651.00 1831.72,610.00 1831.72,610.00              1831.72,610.00 1833.29,595.00 1833.29,595.00              1833.98,589.37 1834.92,587.22 1835.00,581.00              1835.00,581.00 1836.00,561.00 1836.00,561.00              1836.02,548.79 1837.42,537.06 1839.29,525.00              1839.29,525.00 1842.19,513.00 1842.19,513.00              1842.19,513.00 1844.96,493.00 1844.96,493.00              1844.96,493.00 1844.96,484.00 1844.96,484.00              1844.96,484.00 1846.00,466.00 1846.00,466.00              1846.00,466.00 1847.91,448.00 1847.91,448.00              1847.91,448.00 1846.00,426.00 1846.00,426.00              1846.00,426.00 1846.00,408.00 1846.00,408.00              1846.00,408.00 1845.00,395.00 1845.00,395.00              1844.81,378.40 1841.64,371.38 1837.90,356.00              1837.90,356.00 1833.78,333.00 1833.78,333.00              1832.32,328.36 1829.48,324.30 1827.26,320.00              1823.84,313.39 1821.53,308.89 1814.00,306.13              1810.48,304.84 1806.69,304.96 1803.00,305.00              1800.33,305.04 1799.62,305.10 1797.00,305.56 Z            M 3488.00,371.42            C 3482.50,372.22 3476.94,372.31 3472.00,375.22              3466.44,378.50 3465.15,381.82 3462.13,387.00              3454.80,399.54 3453.82,398.39 3454.00,414.00              3454.11,422.93 3456.58,437.27 3458.88,446.00              3460.62,452.58 3463.14,458.08 3464.00,465.00              3464.00,465.00 3464.00,474.00 3464.00,474.00              3464.00,474.00 3467.00,501.00 3467.00,501.00              3467.00,501.00 3467.00,568.00 3467.00,568.00              3467.00,568.00 3471.00,601.00 3471.00,601.00              3471.00,601.00 3471.00,655.00 3471.00,655.00              3471.00,655.00 3474.00,690.00 3474.00,690.00              3474.00,690.00 3474.82,773.00 3474.82,773.00              3475.02,775.79 3474.23,781.03 3473.84,784.00              3472.59,793.48 3466.40,802.73 3457.00,805.78              3451.76,807.48 3444.59,807.00 3439.00,807.00              3439.00,807.00 3407.00,807.00 3407.00,807.00              3396.05,807.02 3394.79,808.59 3385.00,812.14              3381.20,813.52 3377.49,814.39 3374.53,817.39              3368.80,823.18 3367.09,832.16 3367.23,840.00              3366.97,843.27 3366.88,846.78 3367.23,850.00              3368.53,855.90 3374.23,869.66 3379.10,873.01              3385.29,877.26 3398.55,878.13 3406.00,879.29              3406.00,879.29 3434.00,887.09 3434.00,887.09              3438.80,888.87 3440.95,891.03 3445.00,893.78              3445.00,893.78 3454.00,899.53 3454.00,899.53              3458.69,903.16 3468.80,916.67 3471.79,922.00              3474.05,926.02 3474.60,930.68 3476.08,935.00              3479.66,945.45 3483.73,956.79 3483.99,968.00              3484.39,985.97 3475.19,985.55 3475.05,1001.00              3475.05,1001.00 3475.05,1014.00 3475.05,1014.00              3475.05,1014.00 3476.92,1026.00 3476.92,1026.00              3476.92,1026.00 3476.92,1037.00 3476.92,1037.00              3477.04,1046.06 3479.58,1053.33 3480.86,1062.00              3480.86,1062.00 3480.86,1074.00 3480.86,1074.00              3480.86,1074.00 3484.00,1103.00 3484.00,1103.00              3484.00,1103.00 3484.00,1123.00 3484.00,1123.00              3484.00,1123.00 3485.00,1138.00 3485.00,1138.00              3485.00,1138.00 3485.00,1155.00 3485.00,1155.00              3485.00,1155.00 3487.00,1184.00 3487.00,1184.00              3487.02,1197.38 3490.98,1199.33 3491.00,1212.00              3491.00,1212.00 3491.00,1284.00 3491.00,1284.00              3491.01,1290.80 3491.91,1306.56 3495.70,1311.96              3498.10,1315.38 3502.51,1317.73 3506.00,1320.00              3521.23,1329.92 3537.41,1332.50 3550.91,1318.00              3554.13,1314.53 3562.82,1300.38 3564.44,1296.00              3565.73,1292.51 3565.95,1289.66 3566.00,1286.00              3566.00,1286.00 3566.00,1263.00 3566.00,1263.00              3566.00,1263.00 3564.92,1247.00 3564.92,1247.00              3564.92,1247.00 3564.92,1233.00 3564.92,1233.00              3564.92,1233.00 3562.94,1220.00 3562.94,1220.00              3562.94,1220.00 3562.94,1210.00 3562.94,1210.00              3561.30,1199.16 3559.07,1201.05 3559.00,1187.00              3559.00,1187.00 3556.00,1161.00 3556.00,1161.00              3556.00,1161.00 3556.00,1147.00 3556.00,1147.00              3556.00,1147.00 3555.00,1131.00 3555.00,1131.00              3555.00,1131.00 3552.72,1098.00 3552.72,1098.00              3552.72,1098.00 3549.17,1077.00 3549.17,1077.00              3549.17,1077.00 3547.83,1061.00 3547.83,1061.00              3547.83,1061.00 3546.00,1044.00 3546.00,1044.00              3546.00,1044.00 3546.00,1033.00 3546.00,1033.00              3546.00,1033.00 3545.04,1021.00 3545.04,1021.00              3545.04,1021.00 3545.04,1009.00 3545.04,1009.00              3545.04,1009.00 3542.54,978.00 3542.54,978.00              3541.08,969.76 3539.05,968.39 3539.00,959.00              3539.00,959.00 3537.18,938.00 3537.18,938.00              3536.55,929.00 3541.81,923.84 3544.23,916.00              3544.23,916.00 3548.53,899.00 3548.53,899.00              3553.68,887.42 3563.48,885.02 3575.00,885.00              3595.03,884.97 3609.74,881.70 3629.00,877.23              3641.23,874.40 3641.88,877.17 3655.00,870.30              3663.10,866.06 3673.99,861.59 3674.89,851.00              3675.72,841.36 3666.29,834.97 3660.28,828.83              3652.18,820.55 3648.27,815.06 3636.00,815.00              3636.00,815.00 3566.00,815.00 3566.00,815.00              3560.73,814.99 3555.42,815.00 3551.04,811.57              3545.67,807.37 3544.85,802.05 3542.98,796.00              3539.66,785.32 3536.14,775.36 3536.00,764.00              3536.00,764.00 3536.00,675.00 3536.00,675.00              3536.00,675.00 3536.00,478.00 3536.00,478.00              3536.00,478.00 3534.79,462.00 3534.79,462.00              3534.79,462.00 3534.79,445.00 3534.79,445.00              3534.79,445.00 3527.45,414.00 3527.45,414.00              3524.06,397.40 3527.55,401.47 3518.78,385.00              3516.55,380.81 3515.16,377.56 3510.98,374.82              3505.49,371.20 3494.44,370.64 3488.00,371.42 Z            M 1022.00,415.47            C 1016.07,416.87 1014.94,417.85 1010.00,421.28              997.63,429.88 995.02,438.38 995.00,453.00              995.00,453.00 995.00,490.00 995.00,490.00              995.00,490.00 994.00,507.00 994.00,507.00              994.00,507.00 994.00,546.00 994.00,546.00              994.00,546.00 991.00,579.00 991.00,579.00              991.00,579.00 991.00,603.00 991.00,603.00              991.00,603.00 987.00,634.00 987.00,634.00              987.00,634.00 987.00,661.00 987.00,661.00              987.00,661.00 985.00,682.00 985.00,682.00              985.00,682.00 985.00,720.00 985.00,720.00              985.00,720.00 984.00,735.00 984.00,735.00              984.00,735.00 984.00,780.00 984.00,780.00              984.00,780.00 982.17,798.00 982.17,798.00              979.81,822.61 981.62,814.59 975.89,840.00              975.89,840.00 972.30,861.00 972.30,861.00              972.30,861.00 966.87,873.00 966.87,873.00              966.87,873.00 962.01,886.00 962.01,886.00              960.22,889.49 957.97,891.86 955.77,895.00              948.63,905.22 941.63,914.82 931.00,921.90              927.88,923.97 917.42,929.71 914.00,930.78              902.56,934.38 889.70,932.49 884.99,947.00              884.24,949.31 884.06,951.59 884.02,954.00              883.77,966.37 890.14,972.54 899.00,980.28              912.14,991.76 918.61,995.12 933.00,1003.88              940.87,1008.68 943.25,1007.45 950.82,1016.00              961.98,1028.62 955.07,1043.15 955.00,1058.00              955.00,1058.00 955.00,1073.00 955.00,1073.00              955.00,1073.00 953.96,1088.00 953.96,1088.00              953.96,1088.00 953.96,1105.00 953.96,1105.00              953.96,1105.00 952.51,1118.00 952.51,1118.00              952.00,1126.10 956.12,1132.55 955.79,1139.00              955.46,1145.61 953.94,1160.93 952.26,1167.00              952.26,1167.00 945.90,1185.00 945.90,1185.00              945.90,1185.00 942.99,1207.00 942.99,1207.00              942.99,1207.00 935.90,1228.00 935.90,1228.00              935.90,1228.00 931.28,1255.00 931.28,1255.00              931.28,1255.00 926.44,1268.00 926.44,1268.00              924.88,1273.24 924.47,1280.43 923.72,1286.00              922.95,1291.72 921.59,1296.07 922.17,1302.00              922.51,1305.42 923.87,1312.01 925.44,1315.00              929.31,1322.38 943.46,1334.75 952.00,1335.82              963.66,1337.27 968.33,1333.46 978.00,1328.89              981.24,1327.36 985.92,1326.02 987.83,1322.79              989.18,1320.50 989.05,1316.63 988.99,1314.00              988.99,1314.00 986.00,1280.00 986.00,1280.00              986.00,1280.00 985.00,1247.00 985.00,1247.00              985.22,1228.64 989.49,1228.48 994.25,1214.00              994.25,1214.00 997.75,1201.00 997.75,1201.00              999.43,1195.94 1006.95,1181.63 1011.04,1178.65              1016.37,1174.77 1025.59,1175.62 1033.00,1173.25              1033.00,1173.25 1049.00,1167.66 1049.00,1167.66              1049.00,1167.66 1072.00,1164.10 1072.00,1164.10              1072.00,1164.10 1091.00,1157.48 1091.00,1157.48              1091.00,1157.48 1108.00,1154.22 1108.00,1154.22              1108.00,1154.22 1121.00,1148.47 1121.00,1148.47              1121.00,1148.47 1138.00,1144.25 1138.00,1144.25              1138.00,1144.25 1152.00,1138.09 1152.00,1138.09              1152.00,1138.09 1166.00,1133.93 1166.00,1133.93              1166.00,1133.93 1176.00,1128.89 1176.00,1128.89              1176.00,1128.89 1189.00,1123.68 1189.00,1123.68              1189.00,1123.68 1199.00,1117.99 1199.00,1117.99              1199.00,1117.99 1208.00,1114.19 1208.00,1114.19              1208.00,1114.19 1218.00,1108.32 1218.00,1108.32              1218.00,1108.32 1226.00,1104.48 1226.00,1104.48              1226.00,1104.48 1234.00,1099.09 1234.00,1099.09              1234.00,1099.09 1242.00,1094.38 1242.00,1094.38              1251.37,1087.89 1261.31,1078.33 1269.28,1070.17              1274.15,1065.19 1279.21,1060.57 1283.47,1055.00              1286.14,1051.52 1287.30,1048.63 1289.45,1045.00              1299.88,1027.40 1305.97,1011.68 1306.00,991.00              1306.00,991.00 1306.00,977.00 1306.00,977.00              1305.85,964.91 1304.15,961.33 1298.78,951.00              1296.59,946.77 1295.47,942.92 1292.70,939.00              1287.12,931.12 1274.36,920.43 1266.00,915.47              1266.00,915.47 1258.00,911.49 1258.00,911.49              1241.10,902.18 1247.97,907.00 1234.00,901.54              1229.34,899.71 1224.83,896.69 1220.00,895.52              1220.00,895.52 1200.00,892.55 1200.00,892.55              1189.87,890.48 1189.57,888.11 1176.00,886.28              1176.00,886.28 1161.00,885.00 1161.00,885.00              1161.00,885.00 1142.00,884.00 1142.00,884.00              1142.00,884.00 1092.00,884.00 1092.00,884.00              1087.22,884.01 1075.56,885.03 1071.00,885.81              1060.02,888.39 1052.71,894.01 1042.00,885.81              1040.20,884.20 1037.69,881.75 1036.21,880.00              1028.77,871.22 1031.37,864.01 1032.72,854.00              1032.72,854.00 1035.09,828.00 1035.09,828.00              1035.09,828.00 1036.00,818.00 1036.00,818.00              1036.13,806.97 1037.41,795.89 1039.32,785.00              1039.32,785.00 1042.54,772.00 1042.54,772.00              1042.54,772.00 1046.00,733.00 1046.00,733.00              1046.04,709.76 1054.73,688.17 1055.00,665.00              1055.00,665.00 1056.00,652.00 1056.00,652.00              1056.09,643.78 1056.20,640.27 1057.43,632.00              1057.43,632.00 1062.56,605.00 1062.56,605.00              1062.56,605.00 1065.09,578.00 1065.09,578.00              1065.09,578.00 1066.00,568.00 1066.00,568.00              1066.11,557.93 1067.63,543.93 1069.46,534.00              1069.46,534.00 1071.99,524.00 1071.99,524.00              1073.17,518.48 1074.99,504.59 1075.00,499.00              1075.00,499.00 1075.00,479.00 1075.00,479.00              1074.98,467.81 1073.68,467.68 1069.31,458.00              1064.14,446.54 1067.35,450.04 1058.66,439.00              1050.68,428.85 1036.12,413.81 1022.00,415.47 Z            M 266.00,433.42            C 266.00,433.42 234.00,435.29 234.00,435.29              234.00,435.29 214.00,438.90 214.00,438.90              214.00,438.90 198.00,442.92 198.00,442.92              198.00,442.92 174.00,445.28 174.00,445.28              174.00,445.28 148.00,452.34 148.00,452.34              148.00,452.34 126.00,455.93 126.00,455.93              126.00,455.93 109.00,462.51 109.00,462.51              109.00,462.51 94.00,465.77 94.00,465.77              88.50,467.47 85.76,469.93 81.00,472.10              81.00,472.10 73.00,475.32 73.00,475.32              62.90,480.04 48.67,489.49 42.83,499.00              35.62,510.73 40.29,514.56 43.57,526.00              45.60,533.07 47.05,539.45 53.09,544.47              57.89,548.45 71.20,552.15 79.79,562.01              82.78,565.44 83.71,568.21 85.87,572.00              95.37,588.64 92.96,586.81 95.28,605.00              96.00,610.59 96.93,612.93 97.00,619.00              97.00,619.00 97.00,658.00 97.00,658.00              97.00,658.00 95.00,681.00 95.00,681.00              95.00,681.00 94.00,722.00 94.00,722.00              93.99,726.86 93.82,731.38 92.05,736.00              87.19,748.64 73.50,754.98 64.04,764.08              54.96,772.82 40.28,788.44 35.48,800.00              33.31,805.22 31.42,817.23 31.09,823.00              30.80,828.09 32.11,837.96 35.42,841.89              38.82,845.94 43.58,846.51 48.00,848.90              48.00,848.90 56.00,853.68 56.00,853.68              56.00,853.68 67.00,858.38 67.00,858.38              67.00,858.38 76.00,864.09 76.00,864.09              79.65,866.35 84.68,868.81 87.35,872.18              91.67,877.61 91.73,889.40 90.54,896.00              90.54,896.00 87.22,909.00 87.22,909.00              86.83,912.84 87.04,916.17 87.22,920.00              87.22,920.00 85.08,935.00 85.08,935.00              85.08,935.00 85.08,947.00 85.08,947.00              84.99,954.37 83.33,961.62 84.29,969.00              85.47,978.07 88.62,981.37 88.52,986.00              88.41,990.62 84.02,997.33 84.00,1012.00              84.00,1012.00 84.00,1042.00 84.00,1042.00              84.00,1042.00 85.00,1058.00 85.00,1058.00              85.00,1058.00 85.00,1111.00 85.00,1111.00              85.00,1111.00 87.00,1134.00 87.00,1134.00              87.00,1134.00 87.00,1149.00 87.00,1149.00              87.00,1149.00 91.00,1180.00 91.00,1180.00              91.00,1180.00 94.04,1209.00 94.04,1209.00              94.04,1209.00 94.04,1225.00 94.04,1225.00              94.04,1225.00 95.21,1236.00 95.21,1236.00              95.02,1239.44 94.93,1241.52 95.21,1245.00              95.21,1245.00 102.55,1276.00 102.55,1276.00              104.96,1287.81 103.14,1293.49 108.76,1305.00              108.76,1305.00 115.99,1321.91 115.99,1321.91              121.00,1329.39 131.48,1332.42 140.00,1332.91              148.10,1333.37 158.98,1330.35 164.20,1323.82              166.20,1321.31 168.65,1315.23 170.25,1312.00              173.77,1304.89 176.48,1297.10 175.70,1289.00              174.18,1273.07 167.87,1269.53 166.04,1252.00              166.04,1252.00 166.04,1243.00 166.04,1243.00              166.04,1243.00 165.00,1227.00 165.00,1227.00              165.00,1227.00 162.56,1199.00 162.56,1199.00              160.84,1188.06 159.07,1190.57 159.00,1177.00              159.00,1177.00 156.00,1146.00 156.00,1146.00              156.00,1146.00 155.00,1083.00 155.00,1083.00              155.00,1083.00 156.00,1067.00 156.00,1067.00              156.06,1054.21 157.49,1041.67 159.28,1029.00              159.28,1029.00 161.82,1015.00 161.82,1015.00              162.23,1009.55 158.19,994.56 157.08,988.00              157.08,988.00 153.54,950.00 153.54,950.00              153.54,950.00 149.91,938.00 149.91,938.00              148.24,932.18 146.07,918.01 146.14,912.00              146.14,912.00 146.14,887.00 146.14,887.00              147.72,875.35 150.59,869.56 153.57,859.00              153.57,859.00 157.48,843.00 157.48,843.00              160.53,835.38 173.08,816.92 179.04,811.04              183.75,806.40 186.70,805.65 192.00,802.31              196.34,799.57 198.82,797.70 204.00,796.51              210.34,795.06 221.24,794.81 227.00,798.09              237.23,803.91 241.99,815.61 245.69,826.00              251.38,841.97 253.79,844.09 254.00,862.00              254.07,867.61 256.23,887.62 257.50,893.00              257.50,893.00 261.57,908.00 261.57,908.00              262.59,914.07 263.97,922.99 264.00,929.00              264.03,934.92 264.45,941.14 265.30,947.00              265.30,947.00 273.38,982.00 273.38,982.00              273.38,982.00 275.46,1008.00 275.46,1008.00              275.46,1008.00 282.19,1032.00 282.19,1032.00              282.19,1032.00 285.46,1058.00 285.46,1058.00              285.46,1058.00 292.34,1082.00 292.34,1082.00              292.34,1082.00 295.67,1106.00 295.67,1106.00              295.67,1106.00 302.12,1125.00 302.12,1125.00              302.12,1125.00 306.16,1148.00 306.16,1148.00              306.16,1148.00 312.52,1166.00 312.52,1166.00              312.52,1166.00 316.55,1186.00 316.55,1186.00              316.55,1186.00 322.56,1200.00 322.56,1200.00              322.56,1200.00 326.22,1217.00 326.22,1217.00              326.22,1217.00 332.25,1231.00 332.25,1231.00              332.25,1231.00 336.09,1245.00 336.09,1245.00              336.09,1245.00 341.55,1257.00 341.55,1257.00              341.55,1257.00 346.21,1271.00 346.21,1271.00              346.21,1271.00 351.68,1281.00 351.68,1281.00              351.68,1281.00 355.47,1292.00 355.47,1292.00              355.47,1292.00 361.10,1302.00 361.10,1302.00              361.10,1302.00 365.95,1313.00 365.95,1313.00              365.95,1313.00 372.60,1323.00 372.60,1323.00              374.60,1326.76 374.97,1329.49 378.21,1332.81              383.94,1338.70 394.80,1339.69 401.99,1336.00              408.52,1332.65 419.33,1320.14 421.75,1313.00              423.56,1307.68 423.07,1296.02 423.00,1290.00              422.82,1274.76 419.23,1271.18 416.81,1259.00              416.81,1259.00 414.10,1240.00 414.10,1240.00              414.10,1240.00 407.45,1220.00 407.45,1220.00              407.45,1220.00 404.10,1198.00 404.10,1198.00              404.10,1198.00 397.90,1179.00 397.90,1179.00              397.90,1179.00 394.08,1155.00 394.08,1155.00              394.08,1155.00 387.03,1138.00 387.03,1138.00              387.03,1138.00 383.45,1124.00 383.45,1124.00              383.45,1124.00 377.04,1109.00 377.04,1109.00              377.04,1109.00 373.45,1094.00 373.45,1094.00              373.45,1094.00 367.36,1080.00 367.36,1080.00              367.36,1080.00 363.45,1064.00 363.45,1064.00              363.45,1064.00 357.36,1050.00 357.36,1050.00              357.36,1050.00 353.79,1034.00 353.79,1034.00              353.79,1034.00 347.44,1018.00 347.44,1018.00              347.44,1018.00 342.91,999.00 342.91,999.00              342.91,999.00 337.91,987.00 337.91,987.00              337.91,987.00 334.25,968.00 334.25,968.00              334.25,968.00 327.48,949.00 327.48,949.00              327.48,949.00 323.56,928.00 323.56,928.00              321.59,921.38 319.26,918.86 317.45,910.00              317.45,910.00 314.20,885.00 314.20,885.00              314.20,885.00 306.62,858.00 306.62,858.00              306.62,858.00 305.83,844.00 305.83,844.00              305.83,844.00 302.83,815.00 302.83,815.00              301.92,805.92 298.38,796.82 299.09,788.00              299.57,782.12 302.34,778.20 304.69,773.00              304.69,773.00 308.53,764.00 308.53,764.00              311.94,758.01 326.29,742.10 332.04,738.48              336.11,735.91 339.87,735.33 344.00,733.49              350.16,730.74 360.64,724.80 366.00,720.77              381.77,708.89 402.66,688.27 413.78,672.00              413.78,672.00 419.55,662.00 419.55,662.00              419.55,662.00 433.63,639.00 433.63,639.00              433.63,639.00 438.49,627.00 438.49,627.00              438.49,627.00 444.61,615.00 444.61,615.00              444.61,615.00 448.46,601.00 448.46,601.00              451.54,593.13 453.88,592.32 454.00,583.00              454.18,567.63 451.79,564.73 448.37,551.00              446.72,544.34 446.31,537.33 443.49,531.00              443.49,531.00 437.97,521.00 437.97,521.00              430.77,506.70 425.74,497.65 413.91,486.17              407.48,479.93 393.84,469.98 386.00,465.52              386.00,465.52 379.00,462.10 379.00,462.10              379.00,462.10 369.00,456.32 369.00,456.32              369.00,456.32 356.00,451.55 356.00,451.55              356.00,451.55 344.00,446.10 344.00,446.10              344.00,446.10 325.00,442.12 325.00,442.12              325.00,442.12 307.00,435.90 307.00,435.90              300.95,434.45 272.42,432.64 266.00,433.42 Z            M 3287.00,454.61            C 3268.77,457.47 3254.22,473.31 3254.00,492.00              3253.85,504.83 3254.54,516.72 3266.17,524.87              3273.37,529.92 3290.53,529.21 3299.00,527.67              3304.66,526.64 3307.85,523.04 3312.00,519.42              3320.06,512.38 3324.95,506.97 3325.00,496.00              3325.02,491.60 3325.41,481.75 3324.15,478.00              3321.86,471.22 3307.76,456.92 3301.00,454.61              3297.07,453.57 3291.08,453.92 3287.00,454.61 Z            M 2940.00,461.14            C 2940.00,461.14 2918.00,464.00 2918.00,464.00              2910.47,464.08 2899.24,463.97 2892.00,465.52              2892.00,465.52 2876.00,471.64 2876.00,471.64              2871.70,473.09 2865.89,474.28 2862.00,476.41              2851.99,481.90 2847.13,493.00 2847.00,504.00              2847.00,504.00 2847.00,614.00 2847.00,614.00              2847.00,614.00 2847.00,746.00 2847.00,746.00              2847.00,746.00 2851.00,777.00 2851.00,777.00              2851.00,777.00 2852.17,802.00 2852.17,802.00              2852.17,802.00 2854.00,820.00 2854.00,820.00              2854.00,820.00 2854.00,847.00 2854.00,847.00              2854.00,847.00 2855.00,864.00 2855.00,864.00              2855.00,864.00 2855.00,887.00 2855.00,887.00              2855.00,887.00 2856.92,905.00 2856.92,905.00              2856.92,905.00 2856.92,924.00 2856.92,924.00              2856.92,924.00 2861.00,954.00 2861.00,954.00              2861.00,954.00 2862.17,982.00 2862.17,982.00              2862.17,982.00 2863.90,997.00 2863.90,997.00              2863.19,1012.86 2855.03,1018.54 2855.00,1037.00              2855.00,1037.00 2855.00,1089.00 2855.00,1089.00              2855.00,1089.00 2857.00,1112.00 2857.00,1112.00              2857.02,1124.89 2858.57,1123.36 2860.54,1134.00              2860.54,1134.00 2863.39,1152.00 2863.39,1152.00              2863.39,1152.00 2865.93,1176.00 2865.93,1176.00              2865.93,1176.00 2872.64,1192.00 2872.64,1192.00              2872.64,1192.00 2875.48,1202.00 2875.48,1202.00              2876.98,1205.66 2878.85,1207.78 2880.91,1211.00              2885.84,1218.70 2887.05,1223.60 2897.00,1226.24              2909.00,1229.42 2914.05,1224.10 2923.00,1218.09              2930.06,1213.35 2935.86,1210.12 2941.07,1203.00              2945.63,1196.78 2946.82,1189.62 2954.01,1185.83              2958.45,1183.50 2965.54,1182.38 2977.00,1175.55              2990.16,1167.70 3000.93,1158.07 3013.00,1148.90              3035.29,1131.96 3043.18,1124.82 3063.00,1105.00              3063.00,1105.00 3084.68,1082.00 3084.68,1082.00              3084.68,1082.00 3099.67,1062.00 3099.67,1062.00              3099.67,1062.00 3114.21,1044.00 3114.21,1044.00              3114.21,1044.00 3119.46,1035.00 3119.46,1035.00              3119.46,1035.00 3137.78,1004.00 3137.78,1004.00              3137.78,1004.00 3144.10,993.00 3144.10,993.00              3144.10,993.00 3147.95,981.00 3147.95,981.00              3147.95,981.00 3154.07,969.00 3154.07,969.00              3154.07,969.00 3158.46,954.00 3158.46,954.00              3160.32,949.24 3163.22,945.01 3164.49,940.00              3164.49,940.00 3167.90,921.00 3167.90,921.00              3167.90,921.00 3174.94,896.00 3174.94,896.00              3174.94,896.00 3174.94,887.00 3174.94,887.00              3174.94,887.00 3176.08,878.00 3176.08,878.00              3176.08,878.00 3176.08,864.00 3176.08,864.00              3176.08,864.00 3177.91,848.00 3177.91,848.00              3177.91,848.00 3177.91,834.00 3177.91,834.00              3177.91,834.00 3176.09,821.00 3176.09,821.00              3175.54,812.94 3175.70,803.91 3173.99,796.00              3173.99,796.00 3167.74,777.00 3167.74,777.00              3167.74,777.00 3164.25,760.00 3164.25,760.00              3162.53,754.80 3160.35,752.51 3158.35,748.00              3158.35,748.00 3154.67,738.00 3154.67,738.00              3154.67,738.00 3143.53,719.00 3143.53,719.00              3134.51,704.36 3126.26,699.73 3112.00,691.57              3109.02,689.87 3105.12,687.26 3102.00,686.13              3092.68,682.75 3075.38,686.52 3074.12,672.00              3073.71,667.26 3076.54,654.45 3078.51,650.00              3080.81,644.84 3082.48,643.43 3084.64,637.00              3084.64,637.00 3088.46,624.00 3088.46,624.00              3088.46,624.00 3094.45,611.00 3094.45,611.00              3094.45,611.00 3098.07,598.00 3098.07,598.00              3098.07,598.00 3103.91,586.00 3103.91,586.00              3103.91,586.00 3107.36,573.00 3107.36,573.00              3107.36,573.00 3113.90,559.00 3113.90,559.00              3116.21,552.21 3116.08,544.10 3116.00,537.00              3115.86,525.05 3114.16,521.21 3108.78,511.00              3100.73,495.73 3096.84,491.07 3082.00,481.57              3082.00,481.57 3074.00,476.40 3074.00,476.40              3074.00,476.40 3060.00,471.55 3060.00,471.55              3055.08,469.56 3051.27,466.89 3046.00,465.68              3046.00,465.68 3025.00,463.83 3025.00,463.83              3025.00,463.83 3001.00,461.14 3001.00,461.14              3001.00,461.14 2976.00,461.14 2976.00,461.14              2976.00,461.14 2940.00,461.14 2940.00,461.14 Z            M 224.00,503.14            C 224.00,503.14 280.00,503.14 280.00,503.14              285.11,503.01 311.76,506.15 316.00,507.61              316.00,507.61 331.00,515.55 331.00,515.55              331.00,515.55 338.00,518.53 338.00,518.53              347.92,524.15 366.75,542.88 373.88,552.00              380.75,560.78 383.86,563.17 384.00,575.00              384.05,579.24 384.29,583.97 382.89,588.00              381.20,592.86 376.68,598.00 373.39,602.00              365.49,611.58 354.89,621.21 346.00,630.00              346.00,630.00 332.00,643.83 332.00,643.83              321.75,653.10 310.19,661.96 299.00,670.07              299.00,670.07 289.00,676.22 289.00,676.22              289.00,676.22 267.00,690.54 267.00,690.54              267.00,690.54 257.00,695.36 257.00,695.36              257.00,695.36 248.00,701.47 248.00,701.47              248.00,701.47 239.00,705.32 239.00,705.32              239.00,705.32 228.00,711.67 228.00,711.67              228.00,711.67 217.00,715.46 217.00,715.46              217.00,715.46 206.00,721.10 206.00,721.10              206.00,721.10 192.00,725.69 192.00,725.69              184.76,728.22 181.05,730.80 173.00,730.99              169.29,731.07 165.29,731.15 162.02,729.15              157.85,726.59 155.83,722.21 153.76,718.00              148.52,707.39 146.02,698.90 146.00,687.00              146.00,687.00 146.00,603.00 146.00,603.00              146.00,603.00 146.00,579.00 146.00,579.00              146.02,566.18 148.31,562.27 153.13,551.00              153.13,551.00 156.90,541.00 156.90,541.00              160.03,534.22 168.97,524.11 175.00,519.79              178.44,517.33 194.19,508.58 198.00,507.44              198.00,507.44 224.00,503.14 224.00,503.14 Z            M 2948.00,524.33            C 2958.01,523.21 2962.83,524.99 2972.00,525.00              2972.00,525.00 2989.00,525.83 2989.00,525.83              3003.27,527.21 3001.09,527.12 3014.00,533.22              3019.98,536.04 3026.14,537.68 3030.47,543.04              3036.11,550.02 3037.01,559.40 3037.00,568.00              3036.99,575.48 3035.94,582.17 3032.67,589.00              3024.60,605.88 3002.90,621.35 2987.00,630.54              2987.00,630.54 2974.00,636.46 2974.00,636.46              2959.10,645.02 2962.89,641.26 2950.00,646.45              2944.87,648.52 2940.85,651.38 2935.00,650.80              2930.12,650.32 2927.17,647.99 2923.00,645.98              2917.34,643.25 2912.74,643.36 2908.42,637.96              2902.38,630.42 2904.32,622.52 2904.91,614.00              2905.35,607.67 2905.81,596.86 2907.24,591.00              2908.64,585.25 2910.91,582.19 2913.13,577.00              2913.13,577.00 2918.38,562.00 2918.38,562.00              2918.38,562.00 2923.83,553.00 2923.83,553.00              2923.83,553.00 2927.98,544.00 2927.98,544.00              2932.26,535.79 2938.68,526.62 2948.00,524.33 Z            M 661.00,615.53            C 645.24,620.24 638.12,635.89 630.67,649.00              630.67,649.00 625.32,658.00 625.32,658.00              625.32,658.00 621.37,668.00 621.37,668.00              621.37,668.00 616.09,678.00 616.09,678.00              616.09,678.00 612.24,690.00 612.24,690.00              612.24,690.00 605.77,704.00 605.77,704.00              605.77,704.00 601.91,720.00 601.91,720.00              601.91,720.00 595.93,734.00 595.93,734.00              594.16,740.41 594.40,746.93 590.78,753.00              584.02,764.33 574.60,763.06 564.00,766.21              564.00,766.21 549.00,772.25 549.00,772.25              549.00,772.25 537.00,775.55 537.00,775.55              523.56,780.35 501.49,792.51 499.21,808.00              498.17,815.04 503.73,830.34 510.02,833.86              510.02,833.86 526.00,838.53 526.00,838.53              526.00,838.53 535.00,843.68 535.00,843.68              545.74,849.40 551.85,850.73 560.79,861.01              563.55,864.19 564.39,866.55 566.45,870.00              570.39,876.60 574.51,881.67 573.81,890.00              573.10,898.53 569.09,900.55 566.57,906.00              564.86,909.69 565.01,913.06 565.00,917.00              564.98,928.37 564.60,938.69 566.44,950.00              566.44,950.00 572.74,974.00 572.74,974.00              572.74,974.00 575.90,997.00 575.90,997.00              575.90,997.00 581.56,1013.00 581.56,1013.00              581.56,1013.00 585.76,1031.00 585.76,1031.00              585.76,1031.00 591.80,1043.00 591.80,1043.00              591.80,1043.00 596.34,1058.00 596.34,1058.00              596.34,1058.00 616.63,1095.00 616.63,1095.00              616.63,1095.00 632.61,1116.00 632.61,1116.00              635.85,1119.99 639.36,1124.38 643.01,1127.96              647.64,1132.49 671.42,1150.46 677.00,1153.64              677.00,1153.64 687.00,1158.12 687.00,1158.12              687.00,1158.12 697.00,1163.48 697.00,1163.48              702.15,1165.70 716.25,1167.93 722.00,1168.00              727.31,1168.06 747.46,1165.99 752.00,1164.39              755.57,1163.13 760.40,1159.50 764.00,1157.43              770.89,1153.46 778.06,1149.47 783.68,1143.70              788.67,1138.57 801.45,1116.86 804.24,1110.00              804.24,1110.00 807.70,1099.00 807.70,1099.00              809.78,1093.16 813.16,1088.17 814.48,1082.00              814.48,1082.00 816.29,1064.00 816.29,1064.00              817.20,1057.02 820.35,1042.48 819.90,1036.00              819.44,1029.27 814.46,1021.61 816.47,1011.00              817.97,1003.01 821.99,999.65 824.47,994.00              824.47,994.00 828.09,982.00 828.09,982.00              828.09,982.00 833.78,969.00 833.78,969.00              834.71,966.00 835.95,951.54 836.00,948.00              836.08,940.47 836.76,920.15 834.78,914.00              832.86,908.07 828.29,903.34 824.00,899.00              815.53,890.44 808.11,882.35 795.00,884.44              791.75,884.96 788.74,885.73 786.01,887.65              774.98,895.43 775.40,904.89 771.19,916.00              768.93,921.95 765.45,928.48 766.19,935.00              767.04,942.56 772.86,947.40 772.03,955.00              771.40,960.69 764.93,966.96 761.70,972.00              757.67,978.28 757.04,983.69 757.00,991.00              757.00,991.00 755.09,1013.00 755.09,1013.00              754.59,1020.08 754.04,1033.67 752.22,1040.00              752.22,1040.00 745.87,1055.00 745.87,1055.00              743.42,1060.72 743.47,1063.60 739.48,1069.00              736.54,1072.99 730.95,1079.54 727.00,1082.37              724.82,1083.93 721.46,1085.54 719.00,1086.75              707.10,1092.65 702.73,1091.36 691.00,1086.14              686.77,1084.26 682.45,1082.25 679.18,1078.90              670.33,1069.83 665.66,1058.19 660.26,1047.00              653.84,1033.71 656.50,1029.71 653.26,1018.00              653.26,1018.00 649.76,1007.00 649.76,1007.00              649.76,1007.00 647.87,995.00 647.87,995.00              645.90,981.28 646.02,981.87 646.00,968.00              646.00,968.00 645.00,953.00 645.00,953.00              645.00,953.00 645.00,866.00 645.00,866.00              645.01,860.93 645.22,855.68 647.41,851.00              652.68,839.77 666.54,836.14 678.00,836.00              689.81,835.86 704.51,833.91 716.00,831.10              716.00,831.10 731.00,826.81 731.00,826.81              731.00,826.81 752.00,824.54 752.00,824.54              752.00,824.54 771.00,818.21 771.00,818.21              771.00,818.21 791.00,814.22 791.00,814.22              795.35,812.81 798.07,810.47 802.00,808.64              802.00,808.64 814.00,804.48 814.00,804.48              817.36,802.95 820.00,800.82 823.00,798.72              833.15,791.62 835.85,788.90 836.00,776.00              836.05,771.71 834.99,754.67 834.10,751.00              834.10,751.00 828.00,735.00 828.00,735.00              828.00,735.00 824.05,722.00 824.05,722.00              824.05,722.00 818.32,712.00 818.32,712.00              818.32,712.00 814.48,704.00 814.48,704.00              807.18,691.15 798.75,681.29 789.46,670.00              789.46,670.00 775.91,654.09 775.91,654.09              775.91,654.09 767.00,646.00 767.00,646.00              767.00,646.00 749.00,629.84 749.00,629.84              739.17,621.05 734.69,615.02 721.00,615.00              721.00,615.00 683.00,615.00 683.00,615.00              676.82,615.00 666.71,614.59 661.00,615.53 Z            M 1514.00,615.52            C 1497.52,620.06 1489.30,636.92 1482.02,651.00              1482.02,651.00 1476.32,661.00 1476.32,661.00              1476.32,661.00 1471.11,674.00 1471.11,674.00              1471.11,674.00 1466.07,684.00 1466.07,684.00              1466.07,684.00 1461.54,699.00 1461.54,699.00              1461.54,699.00 1455.75,712.00 1455.75,712.00              1455.75,712.00 1452.23,727.00 1452.23,727.00              1452.23,727.00 1446.04,742.00 1446.04,742.00              1444.54,746.90 1444.35,751.39 1441.64,755.98              1436.25,765.11 1425.91,763.40 1417.00,766.04              1417.00,766.04 1401.00,772.30 1401.00,772.30              1401.00,772.30 1390.00,775.36 1390.00,775.36              1384.26,777.30 1382.84,779.17 1378.00,781.63              1378.00,781.63 1370.00,785.35 1370.00,785.35              1359.98,790.93 1351.39,799.75 1352.32,812.00              1352.95,820.28 1354.99,829.87 1363.01,834.00              1367.89,836.51 1373.24,836.07 1380.00,839.37              1380.00,839.37 1399.00,848.96 1399.00,848.96              1405.42,853.14 1419.53,867.96 1422.39,875.00              1423.48,877.68 1424.45,884.02 1424.68,887.00              1425.61,899.27 1417.21,902.73 1417.00,920.00              1416.77,940.24 1420.91,947.48 1423.57,966.00              1423.57,966.00 1425.46,985.00 1425.46,985.00              1425.46,985.00 1432.12,1005.00 1432.12,1005.00              1432.12,1005.00 1436.22,1025.00 1436.22,1025.00              1436.22,1025.00 1441.94,1038.00 1441.94,1038.00              1441.94,1038.00 1446.47,1052.00 1446.47,1052.00              1446.47,1052.00 1452.07,1063.00 1452.07,1063.00              1452.07,1063.00 1455.40,1072.00 1455.40,1072.00              1455.40,1072.00 1462.05,1082.00 1462.05,1082.00              1462.05,1082.00 1466.47,1091.00 1466.47,1091.00              1471.47,1099.43 1482.23,1112.49 1488.85,1120.00              1497.72,1130.08 1517.34,1146.87 1529.00,1153.48              1529.00,1153.48 1539.00,1157.89 1539.00,1157.89              1539.00,1157.89 1549.00,1163.12 1549.00,1163.12              1555.19,1165.78 1568.21,1167.92 1575.00,1168.00              1582.04,1168.08 1598.61,1166.26 1605.00,1163.87              1605.00,1163.87 1614.00,1159.26 1614.00,1159.26              1631.72,1150.12 1639.80,1141.32 1649.31,1124.00              1649.31,1124.00 1654.48,1115.00 1654.48,1115.00              1654.48,1115.00 1658.45,1104.00 1658.45,1104.00              1658.45,1104.00 1664.23,1091.00 1664.23,1091.00              1664.23,1091.00 1667.45,1070.00 1667.45,1070.00              1670.06,1057.20 1672.97,1055.71 1673.91,1039.00              1674.56,1027.47 1666.13,1022.57 1667.50,1013.00              1668.34,1007.23 1671.47,1003.85 1674.10,999.00              1674.10,999.00 1683.07,979.00 1683.07,979.00              1686.00,971.52 1685.44,965.51 1686.17,958.00              1686.17,958.00 1689.00,934.00 1689.00,934.00              1689.08,926.61 1689.06,917.94 1686.24,911.00              1684.02,905.55 1680.07,902.07 1676.00,898.00              1672.73,894.72 1667.82,889.49 1664.00,887.14              1656.26,882.40 1643.86,883.17 1637.04,889.21              1626.50,898.55 1625.72,908.51 1622.76,921.00              1621.68,925.57 1619.84,929.16 1620.11,934.00              1620.11,934.00 1623.81,951.00 1623.81,951.00              1624.84,963.48 1614.34,967.85 1612.33,979.00              1612.33,979.00 1610.83,1000.00 1610.83,1000.00              1610.83,1000.00 1606.27,1021.00 1606.27,1021.00              1606.27,1021.00 1603.10,1046.00 1603.10,1046.00              1601.62,1052.10 1592.55,1068.05 1588.53,1073.00              1582.22,1080.79 1569.42,1090.16 1559.00,1090.79              1554.02,1091.09 1548.41,1088.35 1544.00,1086.25              1539.73,1084.23 1535.68,1082.84 1532.04,1079.67              1527.78,1075.96 1527.27,1073.37 1524.45,1069.00              1520.61,1063.04 1518.20,1061.35 1515.75,1054.00              1515.75,1054.00 1512.69,1045.00 1512.69,1045.00              1510.81,1040.80 1508.73,1037.56 1507.49,1033.00              1507.49,1033.00 1502.72,1000.00 1502.72,1000.00              1502.72,1000.00 1499.46,986.00 1499.46,986.00              1499.46,986.00 1498.72,973.00 1498.72,973.00              1498.72,973.00 1496.00,949.00 1496.00,949.00              1496.00,949.00 1496.00,864.00 1496.00,864.00              1496.01,859.18 1495.97,855.40 1498.41,851.01              1503.34,842.19 1519.23,836.12 1529.00,836.00              1538.28,835.89 1555.11,834.44 1564.00,832.32              1564.00,832.32 1581.00,827.26 1581.00,827.26              1581.00,827.26 1605.00,824.54 1605.00,824.54              1612.78,823.10 1616.49,820.41 1623.00,818.44              1639.35,813.50 1634.28,818.20 1654.00,809.31              1665.81,803.99 1662.68,807.32 1676.00,798.69              1684.52,793.17 1687.53,789.58 1687.96,779.00              1688.19,773.25 1686.71,767.69 1686.17,762.00              1685.52,755.26 1685.91,748.68 1684.07,742.00              1682.68,736.93 1680.41,734.63 1678.46,730.00              1678.46,730.00 1673.62,716.00 1673.62,716.00              1673.62,716.00 1668.87,708.00 1668.87,708.00              1668.87,708.00 1663.53,698.00 1663.53,698.00              1657.54,688.26 1649.97,679.68 1642.58,671.00              1629.74,655.92 1632.57,656.36 1616.00,642.57              1609.50,637.16 1589.21,618.57 1583.00,616.15              1579.74,614.88 1576.42,615.01 1573.00,615.00              1573.00,615.00 1514.00,615.52 1514.00,615.52 Z            M 3884.00,615.52            C 3867.52,620.06 3859.30,636.92 3852.02,651.00              3852.02,651.00 3846.32,661.00 3846.32,661.00              3846.32,661.00 3841.11,674.00 3841.11,674.00              3841.11,674.00 3836.07,684.00 3836.07,684.00              3836.07,684.00 3831.54,699.00 3831.54,699.00              3831.54,699.00 3825.75,712.00 3825.75,712.00              3825.75,712.00 3822.23,727.00 3822.23,727.00              3822.23,727.00 3816.04,742.00 3816.04,742.00              3814.54,746.90 3814.35,751.39 3811.64,755.98              3806.25,765.11 3795.91,763.40 3787.00,766.04              3787.00,766.04 3771.00,772.30 3771.00,772.30              3771.00,772.30 3758.00,776.12 3758.00,776.12              3758.00,776.12 3747.00,782.03 3747.00,782.03              3734.78,788.18 3723.67,793.74 3722.52,809.00              3721.86,817.67 3724.75,829.80 3733.00,834.00              3737.98,836.53 3743.24,836.07 3750.00,839.37              3765.72,847.05 3774.07,850.82 3785.45,865.00              3788.38,868.65 3791.19,871.46 3792.75,876.00              3799.16,894.61 3787.21,902.77 3787.00,920.00              3786.76,940.59 3790.91,947.46 3793.57,966.00              3793.57,966.00 3795.46,985.00 3795.46,985.00              3795.46,985.00 3802.12,1005.00 3802.12,1005.00              3802.12,1005.00 3806.22,1025.00 3806.22,1025.00              3806.22,1025.00 3811.94,1038.00 3811.94,1038.00              3811.94,1038.00 3816.47,1052.00 3816.47,1052.00              3816.47,1052.00 3822.07,1063.00 3822.07,1063.00              3822.07,1063.00 3825.40,1072.00 3825.40,1072.00              3825.40,1072.00 3832.05,1082.00 3832.05,1082.00              3832.05,1082.00 3836.47,1091.00 3836.47,1091.00              3841.93,1100.21 3851.69,1111.87 3858.85,1120.00              3867.79,1130.16 3887.25,1146.82 3899.00,1153.48              3899.00,1153.48 3909.00,1157.89 3909.00,1157.89              3909.00,1157.89 3919.00,1163.12 3919.00,1163.12              3924.74,1165.59 3938.67,1167.92 3945.00,1168.00              3951.64,1168.07 3969.02,1166.11 3975.00,1163.87              3975.00,1163.87 3984.00,1159.12 3984.00,1159.12              4002.30,1149.44 4009.37,1142.11 4019.31,1124.00              4019.31,1124.00 4024.48,1115.00 4024.48,1115.00              4024.48,1115.00 4028.45,1104.00 4028.45,1104.00              4028.45,1104.00 4034.23,1091.00 4034.23,1091.00              4034.23,1091.00 4037.45,1070.00 4037.45,1070.00              4040.45,1055.32 4042.07,1060.11 4043.83,1039.00              4044.76,1027.79 4035.96,1022.30 4037.56,1013.00              4038.44,1007.87 4041.74,1003.48 4044.11,999.00              4044.11,999.00 4053.45,978.00 4053.45,978.00              4055.99,970.81 4055.48,965.12 4056.17,958.00              4056.17,958.00 4059.00,934.00 4059.00,934.00              4059.08,926.61 4059.06,917.94 4056.24,911.00              4054.05,905.61 4050.05,902.02 4046.00,898.00              4043.52,895.55 4036.64,888.82 4033.96,887.14              4026.36,882.36 4013.74,883.27 4007.04,889.21              3996.50,898.55 3995.72,908.51 3992.76,921.00              3991.68,925.57 3989.84,929.16 3990.11,934.00              3990.42,939.71 3994.42,947.60 3993.80,954.00              3992.78,964.55 3984.10,969.01 3982.33,979.00              3982.33,979.00 3980.83,1000.00 3980.83,1000.00              3980.83,1000.00 3976.27,1021.00 3976.27,1021.00              3976.27,1021.00 3972.84,1047.00 3972.84,1047.00              3971.15,1053.25 3961.82,1068.93 3957.56,1074.00              3951.35,1081.40 3939.02,1090.18 3929.00,1090.79              3924.01,1091.09 3918.41,1088.35 3914.00,1086.25              3910.37,1084.53 3906.13,1083.10 3903.02,1080.61              3898.17,1076.74 3897.51,1073.75 3894.45,1069.00              3890.61,1063.04 3888.20,1061.35 3885.75,1054.00              3885.75,1054.00 3882.69,1045.00 3882.69,1045.00              3880.81,1040.80 3878.73,1037.56 3877.49,1033.00              3877.49,1033.00 3872.70,999.00 3872.70,999.00              3872.70,999.00 3869.46,986.00 3869.46,986.00              3869.46,986.00 3868.83,973.00 3868.83,973.00              3868.83,973.00 3866.00,949.00 3866.00,949.00              3866.00,949.00 3866.00,864.00 3866.00,864.00              3866.01,859.18 3865.97,855.40 3868.41,851.01              3873.34,842.19 3889.23,836.12 3899.00,836.00              3908.27,835.89 3925.11,834.44 3934.00,832.32              3934.00,832.32 3951.00,827.26 3951.00,827.26              3951.00,827.26 3975.00,824.54 3975.00,824.54              3983.03,823.05 3987.13,820.09 3994.00,818.15              4010.51,813.50 4005.13,818.23 4024.00,809.26              4024.00,809.26 4034.00,805.54 4034.00,805.54              4038.26,803.85 4041.22,801.81 4045.00,799.34              4054.01,793.48 4057.50,790.45 4057.96,779.00              4058.19,773.25 4056.71,767.69 4056.17,762.00              4055.45,754.44 4056.46,750.55 4054.07,742.00              4052.64,736.87 4050.42,734.65 4048.46,730.00              4048.46,730.00 4044.09,717.00 4044.09,717.00              4044.09,717.00 4038.68,708.00 4038.68,708.00              4038.68,708.00 4033.53,698.00 4033.53,698.00              4027.52,688.19 4019.85,679.72 4012.43,671.00              3997.94,653.98 4004.43,657.95 3985.00,641.75              3978.64,636.45 3959.11,618.53 3953.00,616.15              3949.74,614.88 3946.42,615.01 3943.00,615.00              3943.00,615.00 3884.00,615.52 3884.00,615.52 Z            M 3260.00,684.47            C 3253.57,686.00 3252.23,687.28 3247.00,691.12              3241.69,695.01 3237.75,697.44 3233.79,703.00              3226.45,713.28 3227.02,728.86 3227.00,741.00              3227.00,741.00 3225.00,766.00 3225.00,766.00              3225.00,766.00 3225.00,789.00 3225.00,789.00              3225.00,789.00 3224.00,804.00 3224.00,804.00              3224.00,804.00 3224.00,841.00 3224.00,841.00              3224.00,841.00 3226.44,870.00 3226.44,870.00              3226.44,870.00 3229.42,885.00 3229.42,885.00              3229.42,888.65 3227.91,893.27 3227.28,897.00              3227.28,897.00 3224.00,928.00 3224.00,928.00              3224.00,928.00 3225.10,957.00 3225.10,957.00              3225.10,957.00 3225.10,965.00 3225.10,965.00              3225.10,965.00 3229.14,985.00 3229.14,985.00              3229.15,991.46 3226.96,995.92 3226.16,1002.00              3224.49,1014.69 3223.98,1027.21 3224.00,1040.00              3224.03,1057.99 3226.81,1060.36 3231.81,1076.00              3235.99,1089.08 3232.74,1087.46 3241.26,1100.00              3242.92,1102.44 3244.21,1104.74 3246.21,1106.96              3260.27,1122.58 3277.71,1114.03 3288.65,1100.00              3290.95,1097.05 3293.08,1094.44 3294.65,1091.00              3297.27,1085.23 3297.64,1080.13 3298.09,1074.00              3298.09,1074.00 3298.91,1067.00 3298.91,1067.00              3298.91,1067.00 3296.00,1036.00 3296.00,1036.00              3296.00,1036.00 3296.00,1017.00 3296.00,1017.00              3296.00,1017.00 3295.04,1006.00 3295.04,1006.00              3295.04,1006.00 3295.04,991.00 3295.04,991.00              3295.04,991.00 3293.00,970.00 3293.00,970.00              3292.81,953.67 3291.16,952.37 3289.29,938.00              3289.29,938.00 3287.83,918.00 3287.83,918.00              3287.83,918.00 3286.00,902.00 3286.00,902.00              3286.00,902.00 3286.00,850.00 3286.00,850.00              3286.01,841.24 3287.12,840.31 3287.83,833.00              3287.83,833.00 3289.30,815.00 3289.30,815.00              3289.30,815.00 3292.38,802.00 3292.38,802.00              3292.38,802.00 3295.00,773.00 3295.00,773.00              3295.00,773.00 3296.00,740.00 3296.00,740.00              3296.00,740.00 3298.00,714.00 3298.00,714.00              3298.00,710.97 3298.15,707.86 3296.99,705.00              3294.98,700.02 3290.21,696.36 3286.00,693.29              3276.41,686.32 3272.49,682.72 3260.00,684.47 Z            M 704.00,687.33            C 715.78,686.02 717.66,687.94 727.00,694.26              731.23,697.11 735.27,698.97 738.61,703.04              744.97,710.77 745.61,726.00 741.87,735.00              740.03,739.43 736.33,742.68 733.00,746.00              728.47,750.52 721.05,757.67 715.00,759.75              710.23,761.39 703.13,761.06 698.00,761.00              683.96,760.83 668.01,749.94 667.09,735.00              666.61,727.20 669.51,722.59 672.89,716.00              674.80,712.28 677.31,706.17 679.63,703.02              683.27,698.09 697.98,688.81 704.00,687.33 Z            M 1556.00,687.33            C 1568.76,685.91 1569.83,688.48 1580.00,694.55              1584.51,697.24 1587.99,698.29 1591.01,703.02              1595.76,710.46 1596.07,727.88 1592.86,736.00              1590.00,743.21 1573.62,757.85 1566.00,760.20              1562.37,761.32 1554.11,761.05 1550.00,761.00              1534.75,760.81 1519.27,747.00 1521.18,731.00              1521.55,727.91 1522.71,724.97 1523.58,722.00              1528.14,706.39 1530.50,703.69 1544.00,693.85              1548.67,690.44 1550.24,688.76 1556.00,687.33 Z            M 3926.00,687.33            C 3938.76,685.91 3939.83,688.48 3950.00,694.55              3954.51,697.24 3957.99,698.29 3961.01,703.02              3965.76,710.46 3966.07,727.88 3962.86,736.00              3959.88,743.52 3943.08,758.34 3935.00,760.44              3931.98,761.23 3923.51,761.04 3920.00,761.00              3904.60,760.81 3889.46,747.06 3891.17,731.00              3891.57,727.32 3892.72,724.47 3893.81,721.00              3898.53,705.91 3900.89,703.41 3914.00,693.85              3918.67,690.44 3920.24,688.76 3926.00,687.33 Z            M 2971.00,708.33            C 2981.66,707.18 2983.84,711.04 2993.00,714.57              3005.57,719.42 3001.60,718.43 3012.00,723.63              3012.00,723.63 3022.00,727.98 3022.00,727.98              3028.34,731.24 3041.27,739.41 3047.00,743.77              3054.12,749.18 3063.65,754.97 3070.00,761.04              3076.22,766.99 3088.19,782.55 3092.47,790.00              3092.47,790.00 3096.27,798.00 3096.27,798.00              3098.48,802.41 3101.46,806.25 3102.95,811.00              3104.55,816.13 3107.06,836.38 3107.00,842.00              3106.93,847.81 3103.85,865.60 3101.91,871.00              3101.91,871.00 3096.12,883.00 3096.12,883.00              3096.12,883.00 3091.80,898.00 3091.80,898.00              3091.80,898.00 3086.09,909.00 3086.09,909.00              3086.09,909.00 3081.82,922.00 3081.82,922.00              3081.82,922.00 3075.78,933.00 3075.78,933.00              3075.78,933.00 3072.01,942.00 3072.01,942.00              3072.01,942.00 3066.78,951.00 3066.78,951.00              3066.78,951.00 3061.65,962.00 3061.65,962.00              3061.65,962.00 3056.47,970.00 3056.47,970.00              3056.47,970.00 3051.53,980.00 3051.53,980.00              3051.53,980.00 3045.46,989.00 3045.46,989.00              3033.92,1007.69 3016.02,1033.77 3001.39,1049.83              3001.39,1049.83 2995.16,1056.04 2995.16,1056.04              2995.16,1056.04 2980.83,1071.83 2980.83,1071.83              2980.83,1071.83 2966.09,1085.28 2966.09,1085.28              2963.60,1087.60 2961.84,1089.96 2958.96,1091.87              2956.91,1093.23 2954.36,1094.26 2952.00,1094.96              2933.30,1100.51 2926.17,1079.64 2926.00,1065.00              2926.00,1065.00 2926.00,1048.00 2926.00,1048.00              2926.08,1041.79 2926.85,1040.66 2927.73,1035.00              2927.73,1035.00 2929.46,1022.00 2929.46,1022.00              2931.22,1012.33 2932.98,1008.66 2933.00,998.00              2933.00,998.00 2933.00,976.00 2933.00,976.00              2932.98,964.99 2930.59,958.99 2929.14,949.00              2929.14,949.00 2929.14,938.00 2929.14,938.00              2929.14,938.00 2926.00,903.00 2926.00,903.00              2926.00,903.00 2925.00,850.00 2925.00,850.00              2925.00,850.00 2922.78,827.00 2922.78,827.00              2922.78,827.00 2922.78,810.00 2922.78,810.00              2921.34,802.23 2919.10,799.56 2918.98,791.00              2918.98,791.00 2918.98,772.00 2918.98,772.00              2918.98,772.00 2918.04,763.00 2918.04,763.00              2917.67,753.57 2920.54,750.40 2925.66,743.00              2934.58,730.10 2955.44,712.06 2971.00,708.33 Z            M 1122.00,946.28            C 1132.08,945.35 1161.55,945.45 1171.00,947.45              1171.00,947.45 1192.00,954.74 1192.00,954.74              1210.32,958.24 1202.66,955.82 1219.00,964.51              1223.57,966.94 1227.02,967.54 1230.35,972.04              1233.46,976.23 1234.76,983.84 1234.96,989.00              1235.13,993.47 1234.09,1003.19 1231.91,1007.00              1229.73,1010.82 1225.39,1014.12 1222.00,1016.92              1222.00,1016.92 1194.00,1037.28 1194.00,1037.28              1194.00,1037.28 1167.00,1055.09 1167.00,1055.09              1167.00,1055.09 1159.00,1061.04 1159.00,1061.04              1159.00,1061.04 1149.00,1066.46 1149.00,1066.46              1149.00,1066.46 1141.00,1071.80 1141.00,1071.80              1141.00,1071.80 1130.00,1077.31 1130.00,1077.31              1130.00,1077.31 1122.00,1082.01 1122.00,1082.01              1122.00,1082.01 1113.00,1085.78 1113.00,1085.78              1113.00,1085.78 1101.00,1092.24 1101.00,1092.24              1101.00,1092.24 1091.00,1095.22 1091.00,1095.22              1091.00,1095.22 1076.00,1101.91 1076.00,1101.91              1070.98,1103.71 1060.41,1104.93 1055.00,1105.00              1055.00,1105.00 1028.00,1105.00 1028.00,1105.00              1020.68,1104.91 1010.25,1104.19 1007.65,1096.00              1004.81,1087.06 1012.93,1068.30 1014.56,1058.00              1014.56,1058.00 1017.08,1037.00 1017.08,1037.00              1017.08,1037.00 1019.96,1022.00 1019.96,1022.00              1020.33,1012.90 1016.13,1006.90 1016.00,996.00              1015.95,991.39 1015.59,984.19 1017.13,980.00              1019.72,972.95 1024.87,969.31 1031.00,965.60              1034.88,963.25 1040.96,959.10 1045.00,957.78              1045.00,957.78 1067.00,954.56 1067.00,954.56              1067.00,954.56 1093.00,949.30 1093.00,949.30              1093.00,949.30 1122.00,946.28 1122.00,946.28 Z"
     stroke-width="1"
     stroke="black"
     fill="none"
     id="Selection" />
</svg>
